<?xml version="1.0" standalone="no"?>
<!DOCTYPE svg PUBLIC "-//W3C//DTD SVG 20010904//EN"
 "http://www.w3.org/TR/2001/REC-SVG-20010904/DTD/svg10.dtd">
<svg version="1.0" xmlns="http://www.w3.org/2000/svg"
 width="1257.000000pt" height="843.000000pt" viewBox="0 0 1257.000000 843.000000"
 preserveAspectRatio="xMidYMid meet">

<g transform="translate(0.000000,843.000000) scale(0.100000,-0.100000)"
fill="#000000" stroke="none">
<path d="M9395 8405 c-16 -13 -25 -24 -20 -24 13 -1 26 9 44 32 19 24 11 21
-24 -8z"/>
<path d="M9419 8387 c-8 -12 -14 -27 -14 -34 0 -7 -9 -19 -20 -27 -13 -10 -15
-15 -6 -16 7 0 11 -6 7 -15 -13 -35 48 -3 93 48 18 20 37 34 42 31 5 -3 -3
-16 -19 -30 -17 -17 -21 -24 -9 -20 18 6 24 -9 7 -19 -21 -13 -9 -25 18 -19
26 7 27 7 9 -13 -17 -19 -17 -21 -1 -27 11 -4 26 1 40 15 20 19 22 19 21 2 -2
-20 -51 -52 -81 -53 -11 0 -31 -10 -45 -22 -14 -13 -19 -15 -12 -5 17 21 19
22 -62 -8 -78 -28 -109 -25 -80 8 18 20 17 20 -4 15 -13 -4 -23 -2 -23 3 0 4
-7 6 -15 3 -8 -4 -15 -1 -15 6 0 9 -3 10 -13 1 -8 -6 -16 -8 -19 -6 -6 7 -63
-45 -69 -62 -2 -7 -13 -10 -25 -7 -17 5 -21 12 -18 37 1 18 3 40 3 51 1 14 4
16 14 8 10 -8 16 -6 26 10 11 17 10 23 -10 41 l-22 21 5 -22 c4 -15 2 -22 -8
-22 -23 0 -49 -37 -67 -93 -9 -30 -26 -62 -36 -71 -18 -16 -20 -16 -28 -1 -13
23 -137 39 -207 26 -41 -8 -63 -19 -90 -46 -20 -20 -36 -40 -36 -45 0 -6 -6
-10 -12 -10 -26 0 -163 -99 -237 -172 -42 -41 -83 -78 -91 -82 -8 -5 1 6 20
23 36 33 26 32 -23 -1 -15 -11 -25 -23 -22 -27 2 -5 -5 -17 -17 -27 -12 -11
-18 -13 -14 -6 17 28 -14 8 -94 -63 -47 -41 -88 -75 -92 -75 -12 0 -75 -95
-92 -140 -20 -50 -32 -124 -17 -101 8 13 18 -13 26 -69 0 -3 9 -17 19 -32 21
-33 41 -36 56 -9 5 11 19 23 31 26 25 8 44 54 29 69 -5 5 -10 17 -10 25 0 12
3 11 18 -2 23 -21 32 -21 32 -2 0 8 12 18 28 21 39 10 72 38 62 54 -4 7 -15
10 -24 7 -36 -14 -16 10 49 59 11 9 13 12 5 8 -22 -12 -100 -11 -100 1 0 6 7
20 15 31 8 12 12 24 10 26 -3 3 22 28 55 57 33 29 60 57 60 63 0 6 -7 5 -17
-3 -16 -13 -17 -12 -4 3 7 10 17 16 21 13 5 -3 17 5 27 18 45 58 106 120 99
103 -5 -16 -4 -17 9 -6 9 7 13 15 11 17 -3 3 25 33 61 68 36 35 63 67 60 72
-4 5 0 10 8 10 8 0 15 -2 15 -4 0 -10 -81 -114 -118 -153 -24 -25 -48 -54 -54
-65 l-11 -20 24 20 c13 11 27 25 31 30 5 7 8 6 8 -1 0 -6 -11 -21 -25 -34 -13
-12 -45 -50 -70 -84 l-47 -61 50 53 c27 28 56 52 64 52 9 0 19 6 21 13 4 8 8
8 14 2 12 -15 36 -18 27 -4 -5 8 -2 10 8 7 20 -8 75 26 133 81 44 41 55 68 18
41 -10 -7 -1 4 20 24 37 37 53 73 20 44 -10 -8 -25 -18 -33 -22 -8 -4 -2 3 15
16 16 13 34 23 39 23 5 0 17 13 25 29 15 26 40 35 33 11 -2 -5 15 8 37 30 23
21 41 37 41 34 0 -25 -48 -87 -117 -153 -46 -44 -82 -85 -79 -92 5 -13 -21
-29 -39 -25 -5 2 -7 -1 -2 -5 4 -4 -1 -16 -10 -27 -26 -30 1 -12 69 44 31 26
54 50 50 55 -4 4 -1 4 6 0 7 -5 26 4 45 21 33 28 60 43 149 82 61 27 85 27 35
0 -22 -12 -35 -24 -31 -31 4 -6 3 -8 -4 -4 -6 3 -14 -4 -17 -16 -4 -13 -26
-42 -48 -65 -24 -25 -35 -43 -27 -43 15 0 -111 -124 -195 -192 -78 -63 -164
-145 -130 -124 17 10 39 26 50 36 34 29 119 86 139 93 16 6 17 5 6 -8 -10 -12
-10 -15 1 -15 9 -1 5 -8 -10 -20 -38 -32 -7 -23 35 10 48 38 93 90 94 109 0 8
3 11 7 8 3 -4 14 0 24 9 33 30 39 9 8 -26 -16 -19 -36 -46 -44 -60 -13 -25
-50 -56 -115 -97 -19 -12 -30 -23 -25 -23 34 -1 177 121 220 188 29 44 44 57
25 22 -6 -11 -9 -24 -6 -29 3 -5 -6 -25 -20 -46 -14 -21 -23 -39 -21 -42 8 -7
68 68 61 78 -3 5 0 8 7 7 8 -2 21 13 31 32 28 55 22 5 -6 -57 -36 -77 -64
-111 -129 -155 -39 -27 -57 -45 -53 -54 3 -9 1 -12 -4 -9 -6 3 -14 -5 -19 -18
-6 -14 -26 -37 -46 -52 -19 -15 -33 -30 -30 -33 3 -3 16 4 28 17 15 13 30 19
41 15 16 -6 16 -8 0 -25 -9 -10 -13 -22 -10 -28 11 -17 -75 -68 -156 -95 -27
-8 -22 1 8 17 26 13 26 14 5 20 -11 3 -24 1 -27 -4 -3 -5 -12 -9 -20 -9 -8 0
-12 4 -9 10 3 5 -13 3 -35 -5 -38 -14 -41 -13 -38 3 2 10 11 16 21 14 11 -2
15 2 11 12 -4 11 -11 13 -31 5 -13 -5 -29 -7 -34 -3 -5 3 -25 0 -44 -6 -56
-18 -63 -6 -9 15 44 16 137 85 115 85 -5 0 -14 -7 -21 -15 -7 -9 -19 -14 -27
-11 -8 3 -11 1 -8 -4 7 -12 -83 -55 -93 -45 -4 3 0 10 8 15 27 18 3 10 -66
-19 -38 -16 -71 -27 -73 -25 -5 5 57 59 68 59 3 0 17 8 31 17 14 9 42 24 63
33 44 18 107 57 107 66 0 10 -45 2 -70 -11 -17 -9 -24 -9 -30 -1 -4 8 -14 5
-32 -9 -33 -26 -37 -25 -34 5 l3 25 -39 -23 c-22 -12 -66 -50 -98 -84 -32 -35
-63 -63 -69 -63 -15 0 -32 -46 -25 -65 4 -8 1 -15 -5 -15 -6 0 -11 -7 -11 -16
0 -9 -6 -14 -13 -11 -10 4 -13 -2 -9 -19 3 -16 -2 -30 -15 -42 -11 -9 -24 -26
-30 -36 -8 -15 -10 -10 -7 24 1 23 6 60 9 81 5 30 4 39 -8 39 -18 0 -47 -32
-47 -53 0 -9 -5 -19 -10 -22 -6 -4 -8 -15 -5 -26 5 -16 1 -19 -21 -19 -15 0
-24 3 -21 7 4 3 2 12 -3 18 -7 9 -6 16 5 25 8 7 15 18 15 25 0 7 7 15 15 19
22 8 19 78 -7 131 -12 25 -25 45 -29 45 -8 0 -19 -53 -19 -96 0 -26 -12 -46
-54 -94 -75 -84 -181 -267 -213 -368 -24 -78 -25 -87 -13 -138 7 -30 17 -54
22 -54 4 0 8 -6 8 -13 0 -7 7 -22 16 -33 15 -18 15 -17 10 19 -4 34 -3 37 15
33 60 -18 56 -21 51 38 -2 31 -1 80 3 111 6 51 10 58 40 72 19 9 31 21 28 26
-3 5 0 8 8 5 8 -2 25 -35 39 -71 14 -37 27 -67 30 -67 5 0 29 87 34 125 1 11
8 29 14 40 33 59 60 124 54 131 -4 4 -1 4 6 0 6 -4 12 -2 12 3 0 6 5 11 11 11
6 0 8 -9 3 -22 -4 -13 -8 -37 -10 -55 -1 -18 -5 -36 -8 -41 -3 -5 4 -26 14
-48 23 -45 24 -48 8 -38 -7 5 2 -8 21 -28 26 -28 37 -34 46 -25 11 10 10 13
-1 15 -22 5 -6 22 21 22 22 0 51 -31 39 -42 -8 -9 121 -134 164 -158 23 -13
42 -27 42 -31 0 -10 48 -40 72 -44 11 -3 28 -11 37 -18 9 -8 41 -24 71 -36
109 -45 130 -55 130 -63 0 -4 6 -5 13 -3 16 7 83 -54 91 -81 9 -30 -9 -71 -34
-79 -11 -3 -29 -23 -39 -43 -11 -20 -35 -53 -55 -71 -20 -19 -36 -39 -36 -45
0 -5 -7 -17 -16 -27 -9 -10 -17 -29 -18 -43 0 -14 -5 -26 -10 -26 -5 0 -7 -2
-4 -6 3 -3 2 -21 -2 -40 -4 -19 -4 -37 1 -40 21 -12 5 -19 -51 -22 -58 -3
-120 9 -148 27 -12 7 -11 13 1 37 8 16 17 45 21 64 5 32 2 40 -28 69 -19 18
-34 27 -33 20 2 -59 -3 -68 -45 -80 -41 -12 -83 -38 -74 -46 2 -3 18 3 35 12
36 18 51 13 51 -16 0 -33 20 -60 54 -74 24 -10 35 -22 39 -44 4 -16 20 -45 37
-64 25 -29 29 -41 24 -64 -9 -39 -11 -304 -2 -309 14 -9 5 -89 -14 -122 -10
-18 -18 -46 -18 -61 0 -16 -3 -31 -7 -33 -15 -6 -63 -77 -63 -92 0 -8 -6 -19
-12 -23 -21 -13 -73 -85 -87 -119 -7 -19 -10 -46 -6 -66 5 -28 14 -38 46 -52
21 -10 39 -22 39 -27 0 -5 6 -9 13 -9 7 0 13 -8 14 -17 0 -10 5 -43 11 -73 6
-30 13 -84 16 -120 3 -36 8 -87 11 -115 3 -27 10 -111 15 -185 6 -74 12 -142
14 -150 1 -8 6 -35 10 -60 4 -25 9 -124 10 -220 4 -211 17 -308 44 -330 24
-20 47 -64 57 -110 4 -19 10 -39 13 -44 3 -5 5 -24 6 -42 1 -22 -2 -30 -10
-23 -23 19 -22 -5 1 -27 23 -21 35 -74 17 -74 -4 0 -7 -68 -7 -150 0 -135 -2
-151 -18 -156 -9 -3 -15 -9 -12 -14 3 -5 1 -11 -5 -15 -6 -4 -7 -11 -4 -17 4
-6 1 -14 -6 -18 -7 -4 -9 -13 -6 -19 4 -6 10 -9 14 -7 10 6 9 -58 -1 -65 -5
-4 -3 -17 3 -30 15 -27 16 -77 1 -92 -5 -5 -7 -25 -4 -44 5 -26 2 -38 -10 -44
-12 -7 -14 -16 -7 -38 4 -16 6 -31 4 -34 -3 -2 0 -17 6 -33 14 -37 21 -162 9
-170 -5 -3 -5 -13 1 -23 6 -13 4 -28 -10 -55 -17 -30 -18 -43 -11 -78 6 -23 8
-46 5 -50 -3 -4 -2 -8 3 -8 4 0 8 -16 9 -35 0 -19 -4 -35 -8 -35 -5 0 -6 -9
-3 -20 4 -13 0 -31 -10 -47 -11 -16 -15 -36 -11 -53 3 -16 1 -42 -4 -59 -5
-19 -5 -33 1 -37 5 -3 7 -10 4 -15 -19 -30 -23 -275 -5 -264 6 3 10 2 10 -4 0
-5 -8 -15 -17 -20 -14 -8 -15 -10 -3 -11 9 0 11 -3 5 -8 -14 -10 -16 -45 -2
-54 9 -5 7 -12 -5 -24 -16 -16 -16 -18 0 -32 16 -13 16 -13 -1 -8 -10 3 -23 6
-28 6 -5 0 -9 9 -9 19 0 11 -4 23 -10 26 -5 3 -10 0 -10 -7 0 -7 -9 2 -20 19
-11 18 -25 33 -30 33 -6 0 -9 4 -6 8 8 13 -26 95 -46 116 -17 16 -23 42 -18
75 1 7 -8 22 -19 33 -12 10 -21 28 -21 40 0 12 -2 19 -6 16 -3 -3 2 -57 10
-119 7 -63 12 -129 9 -147 -3 -20 1 -41 10 -56 15 -23 15 -24 -11 -29 -112
-21 -214 -48 -243 -62 -109 -57 -228 -165 -270 -247 -32 -62 -59 -184 -59
-262 0 -43 4 -66 9 -58 6 10 10 8 15 -10 6 -22 7 -23 21 -4 8 11 15 15 15 9 0
-6 -6 -16 -14 -22 -12 -10 -12 -21 -2 -64 13 -57 55 -147 68 -147 4 0 8 -6 8
-13 0 -16 77 -93 85 -85 3 3 -1 11 -10 18 -16 13 -20 30 -7 30 4 0 19 -11 34
-25 15 -14 32 -25 37 -25 6 0 14 -8 20 -17 5 -10 13 -15 16 -11 4 4 16 -2 28
-13 11 -10 28 -19 36 -19 18 0 10 8 -43 43 -50 33 -119 117 -152 184 -30 60
-48 176 -38 247 24 183 136 319 312 377 49 17 52 19 17 14 -57 -9 -142 -52
-194 -99 -56 -52 -117 -145 -136 -209 -8 -27 -23 -56 -32 -63 -12 -9 -14 -13
-5 -14 15 0 6 -20 -9 -20 -14 0 -9 58 13 128 15 48 25 63 43 68 16 4 29 19 39
45 9 22 20 37 26 34 5 -3 14 4 20 16 8 15 9 19 1 15 -6 -4 -11 -3 -11 3 0 5 4
12 9 16 5 3 12 19 16 35 7 33 33 40 59 15 19 -19 30 -19 23 -1 -6 14 63 86 82
86 5 0 11 -9 14 -20 6 -22 22 -24 77 -11 94 21 268 -26 351 -97 22 -18 34 -23
37 -14 2 6 9 12 15 12 8 0 7 -4 -1 -12 -16 -16 -15 -28 1 -28 6 0 23 -18 37
-40 15 -25 32 -40 45 -41 11 0 14 -3 8 -6 -8 -3 -11 -14 -7 -29 9 -36 -1 -29
-29 18 -14 24 -38 54 -53 68 -24 21 -23 18 5 -15 19 -21 47 -66 63 -100 19
-40 27 -50 23 -30 l-5 30 15 -27 c17 -31 25 -34 42 -17 14 14 29 5 36 -21 3
-11 1 -17 -4 -14 -10 6 -19 -12 -22 -47 -1 -13 -12 -40 -23 -59 -12 -19 -25
-62 -29 -94 -4 -33 -11 -69 -15 -81 -9 -24 -138 -165 -151 -165 -5 0 9 16 31
36 34 31 40 42 40 78 0 22 -6 59 -14 80 -10 29 -11 48 -4 70 23 68 21 102 -8
151 -15 26 -33 49 -40 52 -7 2 -16 17 -19 33 -9 42 -30 54 -108 61 -60 5 -74
10 -92 33 -11 14 -28 26 -37 26 -9 0 -18 6 -21 14 -3 8 -19 13 -42 12 -31 -1
-42 -7 -68 -43 -36 -50 -32 -63 8 -31 16 13 25 16 20 8 -8 -13 -7 -13 8 -1 20
16 32 9 23 -15 -3 -9 -12 -14 -19 -11 -17 6 -195 -39 -213 -54 -20 -16 -17
-63 6 -111 24 -50 25 -93 5 -142 -15 -36 -12 -81 7 -92 6 -4 42 -10 80 -14 68
-8 72 -10 119 -60 52 -55 58 -66 35 -57 -10 4 -13 1 -9 -9 7 -18 22 -18 29 1
11 27 34 17 34 -15 0 -35 29 -56 50 -37 12 10 12 9 3 -3 -13 -18 -1 -46 15
-36 6 3 13 2 16 -3 4 -5 1 -11 -6 -14 -7 -2 1 -3 17 -1 24 3 27 2 13 -7 -10
-5 -42 -13 -70 -17 -52 -6 -52 -6 -18 -13 30 -5 31 -7 8 -8 -15 0 -29 -5 -32
-10 -3 -5 -15 -7 -25 -4 -15 4 -19 0 -17 -14 3 -15 12 -18 57 -19 76 -1 187
36 269 91 110 73 153 133 211 290 12 33 25 69 30 80 l8 20 0 -20 c1 -17 3 -17
11 -5 20 30 10 -12 -30 -132 -31 -95 -48 -129 -81 -166 -42 -49 -136 -115
-150 -106 -10 6 -109 -43 -109 -55 0 -36 -232 -54 -338 -27 -49 13 -67 14 -84
5 -20 -11 -20 -13 -5 -24 42 -30 304 -29 377 2 19 8 79 30 133 48 175 59 279
138 360 274 18 30 37 56 42 58 6 2 16 -16 23 -39 13 -41 81 -152 89 -145 5 6
-31 89 -60 134 -27 43 -62 148 -47 138 6 -4 10 4 11 17 1 18 3 16 10 -10 6
-18 16 -35 24 -38 8 -3 13 -18 13 -35 -1 -30 18 -78 37 -91 5 -4 6 -8 2 -8 -5
0 7 -21 25 -46 48 -67 194 -177 250 -188 7 -2 22 -7 33 -12 11 -5 79 -9 150
-8 107 0 141 4 190 22 59 21 60 21 33 1 -16 -11 -28 -27 -28 -34 0 -7 -19 -20
-42 -28 -24 -9 -35 -16 -25 -16 27 -1 155 60 223 107 86 58 208 192 175 192
-5 0 -12 -8 -15 -17 -12 -36 -91 -114 -116 -115 -14 -1 -41 -12 -60 -25 -48
-32 -60 -29 -18 4 93 75 157 174 198 308 7 22 19 51 27 64 38 59 -7 262 -80
366 l-22 30 35 -29 c19 -16 40 -38 47 -50 28 -49 57 -157 63 -236 6 -79 7 -82
15 -45 11 54 -6 165 -38 245 -15 35 -23 68 -18 73 4 4 25 -7 47 -24 21 -17
102 -62 179 -101 77 -38 129 -60 115 -48 -14 11 -84 49 -157 85 -100 50 -142
76 -175 112 -24 25 -79 83 -123 127 -44 45 -86 91 -93 101 -11 18 -11 17 -1
-3 6 -13 9 -26 6 -28 -3 -3 -113 42 -125 51 -8 6 32 205 54 273 18 54 216 531
228 549 1 1 101 4 221 7 234 5 391 26 504 67 31 12 65 23 76 26 25 7 -82 -93
-110 -103 -30 -11 -105 -76 -121 -106 -15 -28 -19 -108 -6 -108 4 0 15 9 24
19 16 19 20 17 110 -75 222 -227 356 -297 437 -228 17 14 31 31 32 37 1 36
228 190 474 322 264 143 433 242 490 286 101 79 334 319 363 376 62 117 85
277 63 422 -15 97 -36 135 -137 246 -64 71 -94 97 -121 104 -46 13 -86 4 -78
-17 3 -8 -2 -25 -10 -38 -9 -13 -11 -24 -6 -24 15 0 22 -31 27 -122 3 -56 1
-88 -6 -88 -5 0 -10 -8 -10 -17 -1 -10 -9 -36 -20 -58 -10 -22 -16 -43 -14
-47 3 -4 -3 -20 -13 -35 l-17 -28 21 18 c14 12 23 15 28 8 3 -6 16 -11 28 -11
25 0 26 -7 12 -95 -8 -55 -34 -107 -48 -98 -5 3 -4 -4 2 -16 10 -17 9 -21 -4
-21 -8 0 -15 -5 -15 -11 0 -7 -10 -21 -22 -32 l-23 -20 22 6 c18 4 22 1 20
-13 -5 -35 -34 -51 -79 -46 -24 3 -48 5 -54 5 -6 1 -16 13 -22 27 -7 14 -17
22 -22 19 -17 -11 -11 3 13 29 12 13 40 28 62 32 51 9 79 35 70 64 -6 20 -7
21 -21 3 -11 -14 -13 -15 -14 -3 0 13 -2 13 -9 1 -5 -8 -7 -20 -4 -28 3 -8 -8
-5 -30 9 -19 13 -35 25 -35 28 1 32 -4 37 -29 34 -16 -2 -68 -4 -117 -4 -96
-1 -126 -10 -126 -40 0 -10 -5 -22 -10 -25 -6 -3 -19 -25 -30 -48 -26 -55 -44
-77 -63 -77 -8 0 -29 -11 -45 -25 -17 -14 -35 -25 -41 -25 -6 0 -11 -4 -11 -9
0 -5 -17 -15 -37 -21 -21 -6 -47 -15 -58 -20 -58 -24 -66 -26 -146 -33 -34 -4
-75 0 -101 8 -29 8 -50 10 -61 3 -13 -7 -19 -5 -23 6 -3 9 -15 16 -25 16 -10
0 -19 4 -19 9 0 5 -13 12 -30 16 -16 4 -30 11 -30 16 0 5 -13 9 -29 9 -24 0
-30 5 -34 29 -4 16 -15 38 -25 48 -17 16 -18 25 -11 73 5 30 11 70 13 88 5 40
44 122 61 128 7 3 13 16 13 30 0 14 8 31 18 39 11 7 16 17 11 21 -4 4 1 16 10
26 9 11 18 25 19 33 1 8 9 29 18 46 9 18 16 41 16 51 0 11 5 16 10 13 6 -3 10
1 10 11 0 16 15 36 78 98 17 18 32 38 32 43 0 6 41 51 90 101 68 68 96 89 110
85 11 -3 20 -1 20 5 0 6 10 14 22 18 12 3 31 15 42 25 11 11 25 19 32 19 6 0
14 12 17 26 l5 27 -252 -7 c-138 -4 -311 -14 -384 -23 -102 -12 -139 -13 -158
-4 -14 6 -43 11 -65 11 -32 0 -42 4 -46 20 -3 11 -13 20 -23 20 -10 0 -34 22
-53 49 -44 60 -44 104 -1 176 50 82 101 212 153 386 27 90 66 200 85 243 20
43 33 83 29 89 -3 6 -1 7 5 3 13 -8 122 204 122 236 0 10 3 18 8 18 4 0 8 10
8 23 1 12 11 47 22 78 20 54 40 126 78 294 12 50 19 118 19 180 0 86 -3 107
-24 150 -73 146 -409 513 -564 613 -123 80 -171 95 -305 94 -86 -1 -128 4
-175 18 -38 12 -92 20 -137 20 -41 0 -85 6 -98 13 -12 6 -60 63 -107 126 l-84
115 29 32 c15 18 35 54 44 81 19 59 36 219 30 299 -10 150 -12 286 -5 278 5
-5 21 -85 36 -179 15 -93 33 -188 41 -210 7 -22 14 -69 14 -104 l0 -63 29 31
c38 40 53 40 49 -1 -2 -23 -11 -36 -28 -45 -24 -12 -25 -13 -2 -13 13 0 22 -6
22 -15 0 -11 8 -13 30 -8 24 4 30 2 30 -11 0 -21 13 -17 112 25 71 31 108 37
108 17 -1 -24 -37 -93 -59 -112 -15 -14 -18 -22 -10 -27 8 -4 2 -12 -17 -23
-16 -8 -24 -15 -18 -16 18 0 128 76 142 99 16 28 32 27 32 -2 0 -46 -45 -93
-137 -141 -106 -57 -72 -51 47 7 70 35 89 49 107 82 28 50 29 75 3 125 -29 57
-37 126 -17 148 9 9 20 31 26 47 l11 30 -28 -30 c-57 -61 -75 -68 -28 -12 27
32 51 55 54 52 3 -2 19 23 36 58 27 54 31 74 34 161 3 64 0 96 -6 92 -6 -4 -8
11 -5 39 5 53 -19 100 -65 127 -27 16 -31 16 -36 2 -3 -8 -10 -13 -14 -10 -11
7 -52 -79 -51 -107 0 -12 3 -16 6 -9 6 16 68 15 82 -2 15 -18 37 -123 28 -132
-12 -13 -109 39 -118 63 -10 27 -29 30 -30 6 -1 -10 -5 -1 -10 20 -7 30 -6 42
6 53 16 16 21 49 6 40 -11 -7 -3 91 9 115 7 12 5 19 -6 23 -11 4 -21 -7 -35
-40 -11 -25 -18 -52 -15 -60 3 -9 1 -12 -4 -9 -6 3 -10 17 -10 31 0 14 -3 23
-7 21 -5 -3 -9 41 -11 96 -1 56 -3 109 -4 117 0 8 2 32 7 53 6 31 5 37 -9 37
-10 0 -15 -4 -11 -9 3 -5 1 -12 -5 -16 -14 -9 -13 21 3 45 10 17 9 22 -2 29
-7 5 -17 28 -22 52 -5 24 -11 50 -12 57 -4 16 -45 45 -55 38 -4 -2 -7 18 -6
45 1 36 -4 53 -18 65 -10 10 -18 14 -18 10 0 -3 -13 0 -30 9 -17 9 -30 23 -30
35 0 10 -4 22 -10 25 -5 3 -10 12 -10 18 1 7 19 -8 42 -33 27 -30 34 -35 19
-13 -11 17 -21 36 -21 41 0 6 -13 22 -30 35 -33 28 -37 37 -16 37 8 0 40 -24
72 -52 46 -42 54 -46 35 -21 -40 58 -138 116 -214 127 -38 6 -50 13 -62 36
-11 21 -21 28 -36 25 -11 -2 -45 9 -75 25 -30 17 -54 25 -54 20 0 -6 5 -10 12
-10 6 0 8 -3 5 -6 -4 -4 -12 -2 -19 3 -27 21 -45 21 -59 0z m137 -214 c-5 -12
12 -18 37 -14 11 2 37 -25 37 -38 0 -6 -8 -11 -17 -11 -17 -1 -17 -1 0 -14 26
-20 21 -26 -20 -26 -21 0 -43 -4 -50 -8 -7 -4 21 -6 62 -5 65 3 74 1 80 -16 3
-10 17 -22 31 -25 33 -9 20 -28 -14 -20 -26 6 -26 6 -7 -9 19 -15 19 -15 -7
-10 -15 3 -26 10 -25 17 1 6 -6 10 -15 10 -10 -1 -18 1 -18 5 0 4 -14 6 -30 3
-17 -2 -51 1 -76 8 -45 13 -46 13 -23 26 15 8 18 14 9 14 -11 0 -10 5 6 18 21
18 20 18 -36 14 -109 -8 -131 34 -37 71 70 26 121 31 113 10z m-686 -88 c-7
-9 -15 -13 -17 -11 -7 7 7 26 19 26 6 0 6 -6 -2 -15z m-91 2 c-2 -1 -13 -9
-24 -17 -19 -14 -19 -14 -6 3 7 9 18 17 24 17 6 0 8 -1 6 -3z m421 -58 c24 5
48 8 52 5 4 -3 8 0 8 6 0 13 58 4 75 -11 5 -5 17 -9 27 -9 10 0 26 -8 36 -17
9 -10 24 -18 32 -18 8 0 27 -22 42 -50 21 -37 28 -44 28 -27 0 12 -4 22 -8 22
-5 0 -9 13 -9 30 0 24 3 27 14 19 9 -8 13 -8 13 -1 0 15 23 5 95 -40 65 -40
108 -88 60 -66 -14 6 -25 15 -25 19 0 4 -14 12 -31 18 -27 9 -30 8 -25 -5 5
-12 1 -14 -17 -9 -12 4 -26 11 -31 16 -20 19 -24 8 -10 -26 16 -39 20 -140 4
-130 -5 3 -10 -2 -11 -12 0 -14 -2 -15 -6 -3 -3 8 -10 17 -14 20 -4 3 -17 27
-28 53 -22 51 -41 55 -42 9 0 -26 -1 -26 -9 -4 -14 34 -23 26 -16 -15 l5 -38
-13 30 c-8 17 -22 30 -32 30 -12 0 -21 9 -24 25 -3 14 -17 43 -31 66 -15 22
-28 49 -30 59 -3 11 -20 25 -41 33 -32 12 -40 12 -72 -3 -22 -11 -36 -24 -36
-36 0 -12 -5 -16 -14 -13 -21 8 -27 30 -20 75 l7 40 27 -26 c25 -24 30 -25 70
-16z m397 -35 c-3 -3 -12 -4 -19 -1 -8 3 -5 6 6 6 11 1 17 -2 13 -5z m345
-127 c20 -39 39 -88 43 -107 4 -19 12 -38 17 -41 11 -7 12 -197 2 -224 -6 -14
-4 -16 6 -10 10 6 11 2 5 -21 -9 -34 -9 -35 0 -96 6 -34 4 -48 -4 -48 -6 0
-12 17 -13 38 -1 20 -3 53 -5 72 -2 19 -6 62 -9 95 -3 33 -9 73 -14 89 -6 16
-10 47 -10 70 -1 51 -24 152 -40 171 -14 17 -31 85 -21 85 3 0 22 -33 43 -73z
m-1492 -1 c0 -2 -8 -10 -17 -17 -16 -13 -17 -12 -4 4 13 16 21 21 21 13z m289
-39 c-2 -1 -15 -11 -29 -22 l-25 -20 19 23 c11 12 24 22 29 22 6 0 8 -1 6 -3z
m-183 -35 c7 -4 1 -15 -16 -29 -23 -19 -27 -19 -27 -5 0 16 17 41 27 41 3 1
10 -3 16 -7z m50 -14 c4 -7 3 -10 -1 -5 -5 4 -22 -5 -39 -20 l-31 -28 29 33
c34 37 33 36 42 20z m317 -22 c-10 -13 -26 -29 -36 -36 -12 -7 -9 1 10 24 31
40 55 50 26 12z m57 6 c0 -5 -6 -16 -13 -26 -13 -18 -14 -18 -21 -1 -4 11 -1
22 6 27 17 10 28 10 28 0z m-196 -103 c-10 -11 -28 -25 -39 -31 -11 -5 -4 4
15 21 41 36 51 40 24 10z m1041 -23 c11 -11 5 -13 -38 -10 -29 2 -53 3 -55 4
-2 0 0 5 3 10 9 15 74 12 90 -4z m-60 -116 c4 -6 -7 -10 -27 -9 -27 0 -30 2
-13 9 27 12 33 12 40 0z m-1621 -56 c3 -8 2 -12 -4 -9 -6 3 -10 10 -10 16 0
14 7 11 14 -7z m-64 -15 c-11 -20 -11 -20 13 -5 29 20 45 8 16 -12 -12 -8 -19
-22 -17 -35 2 -14 -3 -23 -14 -25 -13 -2 -16 4 -14 35 2 36 11 63 22 63 3 0 0
-9 -6 -21z m893 -13 c-10 -13 -20 -22 -22 -20 -4 4 29 44 36 44 2 0 -4 -11
-14 -24z m217 15 c0 -5 -29 -41 -65 -81 -36 -40 -65 -77 -65 -83 0 -6 -12 -24
-27 -39 -18 -19 -22 -28 -12 -28 17 0 -63 -73 -106 -97 -26 -14 -117 -43 -137
-43 -4 0 -5 7 -2 14 3 8 29 23 57 32 40 13 65 31 107 77 76 83 243 257 247
257 2 0 3 -4 3 -9z m-136 -52 c-8 -17 -17 -40 -19 -51 -2 -11 -26 -45 -52 -75
-70 -83 -189 -153 -257 -153 l-31 0 25 15 c14 8 49 25 78 39 29 14 64 34 78
45 33 26 85 91 79 100 -2 4 14 27 36 52 22 24 38 37 34 29 -3 -8 2 -5 11 8 24
33 37 27 18 -9z m716 15 c0 -2 -7 -4 -15 -4 -8 0 -15 4 -15 10 0 5 7 7 15 4 8
-4 15 -8 15 -10z m-930 -17 c0 -2 -12 -14 -27 -28 l-28 -24 24 28 c23 25 31
32 31 24z m54 -63 c-44 -53 -113 -114 -128 -114 -6 1 6 15 27 32 21 17 51 50
68 75 17 24 34 41 39 38 5 -3 11 -1 15 5 3 5 8 10 11 10 3 0 -12 -21 -32 -46z
m-897 14 c-3 -8 -6 -5 -6 6 -1 11 2 17 5 13 3 -3 4 -12 1 -19z m1753 -21 c0
-7 11 -33 25 -59 29 -54 30 -58 12 -58 -7 0 -20 21 -29 48 -28 80 -31 95 -19
88 6 -4 11 -13 11 -19z m144 -14 c3 -8 3 -20 -1 -25 -3 -6 -1 -8 5 -4 6 3 14
1 18 -5 3 -6 2 -14 -4 -18 -6 -3 -10 -15 -9 -26 1 -13 -3 -19 -13 -17 -8 2
-11 0 -7 -5 5 -4 13 -9 18 -9 5 -1 11 -2 14 -3 2 0 0 -13 -5 -27 -7 -16 -7
-23 0 -19 6 4 10 -7 10 -27 l0 -33 -19 24 c-10 14 -17 30 -14 37 3 8 -6 16
-20 19 -15 4 -30 18 -37 35 -6 15 -21 38 -32 50 -11 12 -17 24 -14 27 3 3 14
-5 25 -18 l20 -24 2 45 1 45 10 -35 11 -35 8 29 c4 16 6 33 3 38 -3 4 2 5 10
2 8 -3 17 -12 20 -21z m166 10 c-1 -23 -50 -46 -50 -23 0 6 4 9 9 6 5 -3 11 1
15 9 5 15 26 21 26 8z m-1805 -33 c-3 -5 -11 -10 -16 -10 -6 0 -7 5 -4 10 3 6
11 10 16 10 6 0 7 -4 4 -10z m1799 -72 c-4 -6 -1 -14 7 -19 12 -7 15 -22 18
-84 1 -15 3 -17 10 -7 12 20 46 10 49 -15 4 -24 -23 -83 -38 -83 -6 0 -10 19
-11 43 -1 42 -1 41 -13 -18 -7 -32 -18 -61 -24 -63 -5 -1 -8 -13 -6 -25 l5
-22 -10 22 c-6 12 -8 32 -5 45 8 35 8 168 0 215 -9 49 2 79 16 44 4 -13 5 -27
2 -33z m-919 -5 c-79 -107 -202 -184 -327 -207 -31 -6 -38 -4 -38 9 0 9 6 15
13 13 6 -1 34 6 62 17 45 18 47 20 25 26 -17 5 -19 7 -7 8 29 2 117 42 112 52
-3 4 8 16 25 25 16 10 30 21 30 25 0 3 12 11 26 17 28 13 27 6 -5 -33 -9 -10
4 -4 29 15 25 19 51 43 58 52 7 10 16 18 19 18 3 0 -7 -17 -22 -37z m875 -116
c-12 -11 -29 -35 -36 -53 -8 -19 -16 -34 -19 -34 -5 0 2 22 27 77 10 24 24 55
30 70 l12 28 4 -34 c2 -24 -2 -38 -18 -54z m-40 54 c0 -26 -10 -51 -21 -51 -5
0 -9 16 -9 35 0 24 5 35 15 35 8 0 15 -9 15 -19z m-1517 -7 c65 -7 85 -18 50
-27 -11 -3 -7 -5 10 -6 50 -2 28 -21 -25 -22 -42 -1 -48 -3 -28 -9 20 -6 15
-8 -25 -9 -63 -2 -44 -17 32 -27 29 -3 50 -10 47 -15 -3 -5 -10 -7 -15 -4 -5
4 -9 1 -9 -4 0 -6 -6 -11 -14 -11 -8 0 -16 -7 -20 -15 -3 -8 -1 -15 4 -15 6 0
10 -4 10 -10 0 -5 -7 -7 -15 -4 -8 4 -15 4 -15 0 0 -3 15 -10 33 -15 24 -8 6
-9 -73 -6 -81 4 -121 11 -168 29 -34 14 -62 20 -62 15 0 -5 6 -9 14 -9 25 0
150 -70 183 -102 37 -36 35 -52 -5 -37 -15 6 -45 12 -67 13 -27 2 -40 7 -40
16 0 8 -8 16 -17 18 -10 2 -18 -1 -18 -7 0 -14 -12 -14 -47 1 -15 6 -31 11
-35 10 -3 -1 -12 5 -18 13 -16 19 -11 19 33 0 52 -22 70 -18 21 4 -39 18 -66
51 -42 51 7 0 3 6 -7 14 -18 13 -18 14 10 10 28 -4 29 -4 8 7 -13 7 -23 16
-23 21 0 5 7 5 17 0 11 -7 23 -6 34 1 16 10 16 12 1 25 -15 12 -15 13 7 8 l23
-5 -22 24 c-33 35 -8 40 51 10 34 -18 55 -23 61 -17 15 15 2 30 -39 47 -51 21
-34 30 21 12 26 -9 46 -12 46 -6 0 5 -4 9 -10 9 -18 0 -11 15 13 27 12 6 31 9
42 7 11 -1 50 -6 88 -10z m1577 -64 c0 -5 -2 -10 -4 -10 -3 0 -8 5 -11 10 -3
6 -1 10 4 10 6 0 11 -4 11 -10z m180 -40 c0 -19 -27 -46 -36 -37 -4 3 -3 22 0
42 6 30 10 34 22 25 8 -7 14 -20 14 -30z m-2277 3 c-7 -2 -19 -2 -25 0 -7 3
-2 5 12 5 14 0 19 -2 13 -5z m32 -13 c3 -5 1 -10 -4 -10 -6 0 -11 5 -11 10 0
6 2 10 4 10 3 0 8 -4 11 -10z m588 -97 c-7 -2 -19 -2 -25 0 -7 3 -2 5 12 5 14
0 19 -2 13 -5z m1424 -67 l-26 -46 32 -1 c18 -1 43 -4 57 -8 25 -7 24 -8 -19
-39 -25 -18 -56 -32 -72 -32 -27 0 -28 2 -27 46 0 29 6 48 14 51 8 3 24 23 36
44 12 21 24 37 26 34 2 -2 -7 -24 -21 -49z m-2041 18 c-11 -7 -22 -11 -25 -8
-3 3 3 12 13 20 11 7 22 11 25 8 3 -3 -3 -12 -13 -20z m237 -19 c15 -4 27 -11
27 -16 0 -5 -7 -6 -15 -3 -8 4 -15 1 -15 -5 0 -6 8 -11 17 -11 12 0 14 -3 6
-11 -7 -7 -23 -5 -54 7 -49 19 -72 34 -64 42 2 3 11 -1 20 -8 13 -11 14 -10 9
3 -6 17 13 18 69 2z m117 -40 c32 -12 33 -14 9 -14 -14 -1 -34 6 -45 14 -23
18 -10 18 36 0z m75 -52 c45 -21 47 -23 16 -18 -18 3 -39 5 -45 5 -6 0 -29 11
-51 25 l-40 25 35 -7 c19 -3 58 -17 85 -30z m1720 7 c-3 -5 -11 -10 -16 -10
-6 0 -7 5 -4 10 3 6 11 10 16 10 6 0 7 -4 4 -10z m-747 -31 c25 -9 38 -24 62
-74 30 -62 36 -102 21 -140 -6 -14 -10 -6 -15 34 -8 60 -30 121 -49 133 -7 4
-27 8 -45 8 -26 0 -35 -5 -39 -20 -5 -21 -23 -28 -23 -10 0 16 -73 -26 -88
-49 -16 -27 -28 -27 -35 0 -4 14 5 33 31 61 57 63 113 81 180 57z m-1 -105
c22 -6 43 -53 43 -95 0 -22 -122 -149 -143 -149 -30 0 -21 53 13 78 16 12 33
22 39 22 5 0 21 14 35 31 32 38 23 62 -30 79 -32 11 -34 13 -17 26 20 15 29
16 60 8z m-179 -149 c16 -34 15 -55 -1 -55 -25 0 -46 33 -36 58 11 29 23 28
37 -3z m225 -35 c-16 -28 -33 -39 -33 -22 0 13 31 52 41 52 6 0 2 -13 -8 -30z
m-213 -291 c0 -10 -4 -19 -10 -19 -21 0 -9 -20 21 -35 45 -24 28 -31 -20 -9
-38 18 -62 44 -40 44 5 0 14 12 19 26 11 28 30 24 30 -7z m65 -79 c3 -5 1 -10
-4 -10 -6 0 -11 5 -11 10 0 6 2 10 4 10 3 0 8 -4 11 -10z m-261 -25 c-3 -7 4
-19 16 -25 21 -11 21 -12 4 -31 -10 -11 -19 -29 -21 -41 -2 -12 -17 -34 -33
-48 -17 -15 -30 -34 -30 -43 0 -10 -8 -17 -20 -17 -18 0 -26 -20 -21 -52 0 -4
-13 -15 -30 -24 -17 -8 -29 -18 -26 -21 10 -9 -58 -72 -95 -87 -48 -20 -88
-20 -117 0 l-23 16 28 29 27 28 -31 18 c-18 10 -32 25 -32 34 0 8 -5 20 -12
27 -9 9 -7 13 8 18 10 3 36 12 57 20 22 8 37 10 37 4 0 -13 47 -13 55 0 3 6
21 10 40 10 19 0 37 5 40 10 3 6 16 10 28 11 l22 1 -22 6 c-16 5 -20 11 -14
21 5 8 16 11 25 8 8 -3 18 -1 22 5 4 7 3 8 -4 4 -24 -14 -11 20 18 52 17 18
30 40 30 47 0 8 11 17 25 21 14 3 25 10 25 15 0 5 6 6 14 3 8 -3 12 -12 10
-19z m321 -70 c73 4 116 3 110 -2 -19 -18 -93 -33 -158 -33 -60 0 -68 3 -96
31 -38 38 -40 48 -3 19 26 -21 33 -22 147 -15z m1256 -89 c17 -9 45 -16 61
-16 38 0 90 -23 147 -64 26 -19 69 -40 95 -47 32 -8 50 -18 53 -30 3 -11 8
-17 12 -15 3 2 7 -17 9 -42 1 -26 6 -50 11 -55 5 -5 5 -22 0 -39 -4 -17 -6
-35 -3 -40 3 -5 -1 -32 -9 -61 -9 -29 -21 -85 -27 -124 -7 -40 -16 -73 -20
-73 -5 0 -8 -13 -8 -29 1 -15 -2 -33 -6 -40 -4 -6 -9 -26 -12 -44 -2 -18 -15
-56 -29 -85 -14 -29 -23 -57 -20 -62 3 -4 1 -10 -5 -12 -5 -1 -10 -20 -12 -40
-1 -21 -6 -38 -10 -38 -4 0 -8 -4 -8 -10 0 -5 7 -10 16 -10 8 0 12 -5 9 -11
-4 -6 -13 -8 -21 -5 -10 4 -14 -2 -14 -18 0 -13 -7 -29 -15 -36 -8 -7 -12 -16
-9 -21 3 -5 -11 -34 -30 -64 -20 -29 -39 -61 -42 -69 -3 -9 -10 -14 -15 -11
-10 7 -28 -26 -22 -42 2 -6 -4 -17 -15 -25 -10 -7 -24 -23 -31 -35 -6 -13 -19
-23 -27 -23 -8 0 -13 -4 -9 -9 3 -5 1 -12 -5 -16 -5 -3 -10 -20 -10 -37 0 -21
-6 -31 -20 -35 -11 -3 -20 -10 -20 -15 0 -5 -10 -33 -23 -61 -21 -46 -75 -208
-92 -277 -9 -33 -35 -178 -39 -210 -5 -54 -39 -180 -47 -180 -5 0 -9 -6 -9
-14 0 -8 -6 -16 -12 -19 -10 -3 -9 -8 2 -22 9 -11 10 -16 3 -11 -7 4 -13 2
-13 -3 0 -21 -2 -26 -12 -38 -7 -9 -6 -15 6 -19 9 -3 16 -10 16 -16 0 -5 -4
-6 -10 -3 -5 3 -10 1 -10 -4 0 -6 4 -11 10 -11 10 0 6 -264 -5 -310 -3 -14 -8
-55 -10 -91 -2 -43 -12 -85 -28 -120 -34 -76 -40 -92 -38 -106 1 -7 -8 -32
-21 -55 -12 -24 -21 -46 -20 -50 1 -5 -2 -8 -8 -8 -5 0 -10 -9 -10 -21 0 -11
-4 -17 -10 -14 -6 4 -10 -7 -10 -24 0 -17 -4 -31 -8 -31 -9 0 -52 -76 -52 -91
0 -10 -9 -23 -40 -57 -8 -10 -14 -24 -12 -32 1 -8 -9 -28 -23 -44 -14 -16 -25
-35 -25 -43 0 -17 -41 -95 -55 -105 -5 -4 -7 -10 -3 -13 3 -3 -7 -20 -23 -37
-15 -17 -33 -44 -40 -60 -6 -15 -15 -28 -19 -28 -9 0 -31 -54 -35 -83 -1 -11
-6 -22 -12 -25 -11 -8 -49 -150 -45 -169 2 -7 -3 -10 -11 -7 -10 4 -16 -6 -21
-36 -3 -22 -11 -38 -16 -35 -11 7 -24 -39 -17 -60 4 -8 2 -17 -3 -20 -5 -3 -7
-19 -4 -34 5 -23 0 -35 -28 -62 -34 -35 -75 -130 -63 -149 4 -6 2 -16 -3 -23
-5 -7 -13 -23 -17 -37 -4 -14 -22 -48 -39 -77 -30 -50 -32 -52 -96 -63 -66
-12 -171 -60 -247 -112 -52 -35 -132 -132 -173 -210 l-32 -59 -40 83 c-41 86
-86 153 -96 144 -8 -9 -33 15 -26 25 3 5 -23 27 -57 49 -35 22 -64 42 -66 43
-1 2 -8 49 -14 104 -9 85 -7 153 15 449 14 192 27 371 28 399 3 41 7 51 28 61
14 7 49 24 78 38 65 32 90 32 137 5 54 -32 100 -39 159 -24 28 7 77 16 109 20
l57 7 58 -47 c71 -59 148 -100 155 -82 2 7 12 71 21 142 10 72 24 182 32 245
9 63 31 176 51 250 19 74 41 188 49 252 18 147 42 224 110 360 75 150 116 252
163 408 28 92 71 197 135 330 63 129 115 257 156 380 64 188 92 240 133 240
10 0 27 5 38 11 20 10 20 11 2 24 -10 8 -26 15 -35 15 -22 0 -22 16 -3 50 8
14 14 28 15 31 0 3 -26 2 -57 -2 -38 -5 -62 -4 -70 3 -10 8 -19 6 -33 -7 -22
-20 -23 -19 -39 54 -11 51 0 166 24 261 24 93 76 231 85 225 4 -2 11 -19 16
-37 7 -29 9 -23 13 42 4 41 2 78 -2 81 -5 3 -8 19 -6 35 4 52 0 67 -17 60 -8
-3 -12 -2 -9 4 9 14 -9 12 -23 -2 -9 -9 -12 -8 -12 5 0 10 4 25 10 35 5 9 19
50 31 90 16 57 25 72 40 72 10 0 19 5 19 11 0 7 10 9 24 5 14 -3 27 -2 30 3 9
15 161 5 197 -13z m-493 -278 c-3 -20 -9 -23 -52 -24 -34 -1 -51 -6 -58 -18
-10 -18 -43 -22 -53 -6 -3 6 -1 10 5 10 6 0 21 11 34 25 12 13 33 29 47 35 13
6 35 17 49 25 23 13 25 13 28 -5 2 -11 2 -30 0 -42z m-248 -103 c0 -18 -41
-37 -54 -25 -5 5 -6 16 -3 24 8 21 57 21 57 1z m-33 -45 c2 0 3 -5 3 -11 0 -6
-8 -8 -17 -5 -19 5 -47 -11 -54 -31 -2 -6 -12 -1 -22 14 -19 24 -19 24 2 30
12 3 21 9 21 13 0 5 15 4 32 -1 18 -5 34 -9 35 -9z m272 -196 c-6 -8 -13 -29
-15 -47 -2 -17 -6 -52 -9 -77 -3 -25 -7 -94 -9 -155 -2 -83 -8 -122 -24 -161
-11 -27 -23 -71 -27 -97 -4 -25 -13 -52 -21 -58 -8 -6 -14 -21 -14 -33 0 -24
-75 -101 -130 -133 -92 -54 -211 -52 -247 5 -10 15 -26 36 -36 47 -31 34 -59
84 -54 98 2 6 -4 24 -14 38 -17 24 -17 30 -5 53 7 15 12 49 11 76 -2 33 1 50
9 50 6 0 19 12 28 28 10 15 18 22 18 15 0 -6 -4 -15 -10 -18 -5 -3 -10 -13
-10 -21 0 -11 4 -10 19 4 37 33 46 39 58 35 6 -2 14 1 18 6 3 6 2 11 -3 11 -5
0 -7 11 -4 25 2 14 8 22 13 19 5 -3 6 1 4 8 -3 8 3 23 14 35 14 15 17 23 8 26
-7 3 -2 6 11 6 15 1 21 5 16 13 -5 8 -2 9 9 5 15 -6 22 3 18 26 0 4 6 7 14 7
8 0 12 6 9 14 -3 8 -1 17 5 21 6 3 11 11 11 16 0 6 -6 7 -12 3 -10 -6 -10 -5
-1 8 7 8 11 17 8 20 -3 3 2 11 11 18 13 12 17 11 25 -1 8 -12 13 -10 28 9 12
13 22 18 26 12 3 -5 1 -10 -6 -10 -7 0 -9 -3 -6 -7 4 -3 21 6 37 22 17 16 30
26 30 22 0 -3 16 1 35 9 19 8 35 11 35 7 0 -5 17 10 36 32 20 22 39 41 43 41
29 7 51 18 53 28 1 6 3 -11 5 -37 3 -28 -1 -55 -8 -63z m-1268 15 c8 -16 13
-18 19 -9 5 9 9 9 14 1 4 -6 2 -11 -3 -11 -14 0 -14 -27 -1 -32 6 -2 13 -17
16 -33 3 -17 15 -38 27 -48 12 -10 16 -16 10 -12 -7 3 -13 1 -13 -5 0 -6 6
-13 13 -16 8 -3 14 -24 16 -52 1 -26 6 -48 12 -50 5 -2 9 -11 9 -19 0 -13 3
-13 15 -3 17 14 21 0 4 -17 -9 -9 -8 -16 4 -27 9 -9 20 -16 26 -16 6 0 11 -6
11 -12 0 -7 8 -22 16 -33 l15 -20 16 20 c15 20 15 20 10 -2 -3 -13 -1 -23 5
-23 6 0 8 -9 5 -20 -3 -11 0 -20 6 -20 7 0 3 -7 -7 -15 -11 -8 -16 -15 -12
-15 5 0 3 -7 -4 -15 -8 -10 -10 -30 -5 -61 8 -58 -6 -95 -45 -113 -17 -7 -30
-19 -30 -27 0 -12 -4 -12 -22 -2 -85 48 -156 142 -172 228 -16 83 -29 136 -39
157 -7 16 -6 40 2 80 7 32 16 98 21 146 11 109 34 146 61 96z m1199 -683 c0
-2 -8 -10 -17 -17 -16 -13 -17 -12 -4 4 13 16 21 21 21 13z m-60 -51 c-7 -8
-17 -15 -23 -15 -6 0 -2 7 9 15 25 19 30 19 14 0z m623 -1320 c12 -30 -14
-193 -39 -250 -28 -64 -36 -103 -35 -172 1 -18 -4 -33 -10 -33 -15 0 -39 -64
-39 -108 0 -21 -3 -42 -7 -46 -4 -3 -7 -14 -8 -24 -1 -9 -5 -27 -9 -39 -5 -14
-3 -23 3 -23 6 0 11 -7 11 -15 0 -8 -5 -15 -11 -15 -5 0 -7 5 -4 10 3 6 1 10
-4 10 -9 0 -16 -37 -12 -63 1 -4 -10 -12 -23 -17 -13 -5 -28 -15 -33 -22 -22
-35 -40 -39 -77 -17 -20 11 -36 25 -36 30 0 5 -12 9 -26 9 -25 0 -26 2 -19 38
3 20 42 142 85 269 44 128 89 279 101 335 23 108 32 130 53 122 7 -3 24 4 37
15 25 20 96 25 102 6z m407 -595 c0 -5 -5 -10 -11 -10 -5 0 -7 5 -4 10 3 6 8
10 11 10 2 0 4 -4 4 -10z m-2620 -1300 c-12 -7 -10 -11 10 -19 19 -8 5 -10
-65 -10 -135 -2 -261 -43 -349 -114 -68 -55 -75 -52 -12 7 70 67 175 114 272
123 35 3 67 10 70 14 3 5 24 9 47 9 30 0 38 -3 27 -10z m1235 -10 l20 -9 -20
0 c-11 0 -27 4 -35 9 -13 9 -13 10 0 9 8 0 24 -4 35 -9z m-127 -35 c-3 -3 -32
-12 -64 -21 -110 -28 -201 -80 -277 -157 -38 -39 -64 -60 -57 -46 22 40 123
135 168 158 24 12 40 26 37 31 -4 6 -3 11 2 11 4 1 19 3 33 5 14 1 43 7 65 12
44 11 101 15 93 7z m-208 -40 c0 -6 -56 -35 -67 -35 -4 0 6 9 22 20 29 19 45
25 45 15z m220 -4 c0 -5 -11 -11 -25 -13 -14 -3 -25 -3 -25 -1 0 3 34 19 48
22 1 1 2 -3 2 -8z m150 -18 c24 -30 77 -48 95 -33 13 10 15 9 15 -9 0 -14 6
-21 19 -21 10 0 29 -10 43 -22 14 -13 31 -24 38 -26 18 -4 50 -45 45 -59 -2
-6 5 -13 16 -16 11 -3 19 -11 19 -19 -4 -26 12 -57 26 -51 10 4 12 0 8 -11 -3
-8 1 -37 10 -63 17 -53 24 -148 12 -160 -4 -5 -7 -1 -5 7 5 28 -13 140 -24
147 -7 4 -8 -2 -3 -18 15 -49 18 -177 6 -231 -15 -64 -50 -136 -78 -162 -21
-18 -21 -18 -11 20 6 22 20 54 31 72 13 22 20 51 20 83 0 44 -4 54 -36 86 -20
20 -36 46 -36 58 0 27 -34 72 -60 80 -11 4 -18 10 -15 15 7 11 -43 50 -64 50
-16 0 -43 33 -47 58 -8 50 -88 51 -154 3 -46 -33 -74 -38 -115 -19 -21 9 -32
8 -61 -5 -42 -21 -53 -45 -43 -105 8 -59 -3 -98 -42 -138 -24 -25 -30 -39 -27
-65 3 -31 9 -37 65 -64 69 -34 103 -61 103 -83 0 -12 -3 -12 -15 -2 -11 9 -19
10 -26 3 -7 -7 -5 -14 6 -23 8 -7 15 -20 15 -28 0 -12 3 -13 11 -5 9 9 17 6
31 -13 11 -13 27 -24 36 -24 14 0 15 -2 2 -10 -8 -5 -11 -13 -6 -17 4 -4 13 0
20 10 17 23 26 22 26 -4 0 -11 5 -17 10 -14 6 3 10 -2 10 -12 0 -10 5 -25 11
-33 8 -12 9 -9 5 13 -7 32 8 36 24 7 6 -11 27 -27 47 -35 20 -8 33 -18 30 -22
-4 -3 -13 0 -21 7 -13 10 -20 8 -40 -8 -14 -11 -22 -23 -18 -27 4 -4 -5 -5
-21 -3 -18 4 -30 0 -36 -9 -7 -13 -14 -12 -47 5 -21 12 -74 37 -116 57 -59 28
-91 51 -137 101 -34 36 -61 70 -61 76 0 6 6 5 16 -3 13 -10 11 -2 -6 31 -87
170 -54 374 82 510 154 154 395 171 568 41 52 -39 134 -136 145 -172 4 -11 9
-18 12 -15 11 10 -62 128 -102 165 -91 84 -189 121 -320 121 -192 0 -352 -108
-424 -286 -11 -27 -20 -41 -20 -30 -1 34 71 156 125 210 41 41 52 58 47 74 -3
13 -1 22 6 22 6 0 11 -7 11 -15 0 -20 2 -19 67 11 30 15 76 28 101 30 29 2 54
11 66 23 26 27 112 23 136 -6z m-220 -3 c0 -5 -4 -10 -10 -10 -5 0 -10 5 -10
10 0 6 5 10 10 10 6 0 10 -4 10 -10z m486 -48 c-4 -3 -14 2 -24 12 -16 18 -16
18 6 6 13 -6 21 -14 18 -18z m-1632 -191 c3 -5 -1 -14 -8 -20 -12 -10 -13 -8
-9 8 6 23 9 25 17 12z m731 -62 l-25 -54 4 39 c5 40 37 99 43 80 2 -6 -8 -36
-22 -65z m-672 -2 c34 -12 16 -22 -35 -19 -33 2 -48 0 -40 -6 9 -6 3 -9 -18
-9 -40 0 -38 11 5 31 19 9 35 22 35 28 0 7 7 5 18 -4 9 -8 25 -18 35 -21z
m536 -72 c0 -54 -17 -25 -25 42 -5 46 -5 47 10 23 8 -14 15 -43 15 -65z m666
45 c3 -5 -1 -10 -9 -10 -9 0 -16 -5 -16 -11 0 -5 -4 -8 -9 -5 -4 3 -17 -1 -27
-10 -14 -11 -15 -14 -4 -13 8 1 26 1 40 0 20 -2 17 -5 -18 -16 -23 -7 -54 -20
-67 -29 -14 -9 -25 -12 -25 -7 0 5 4 12 10 16 5 3 7 12 4 20 -9 23 49 75 85
75 16 0 33 -4 36 -10z m-1295 -29 c0 -5 -15 -11 -32 -13 -18 -3 -42 -9 -52
-13 -14 -6 -17 -5 -12 4 15 24 96 43 96 22z m-30 -45 c0 -2 -7 -7 -16 -10 -8
-3 -12 -2 -9 4 6 10 25 14 25 6z m867 -18 c-3 -8 -6 -5 -6 6 -1 11 2 17 5 13
3 -3 4 -12 1 -19z m755 -50 c-7 -7 -12 -8 -12 -2 0 14 12 26 19 19 2 -3 -1
-11 -7 -17z m-2002 -18 c0 -5 -5 -10 -11 -10 -5 0 -7 5 -4 10 3 6 8 10 11 10
2 0 4 -4 4 -10z m570 -10 c0 -35 -48 -78 -108 -95 -90 -27 -151 -7 -188 60
-25 48 -13 52 29 10 35 -35 57 -44 57 -24 0 5 -4 8 -9 4 -5 -3 -12 -1 -15 4
-4 5 -1 13 5 17 13 8 41 -24 33 -37 -3 -5 6 -9 21 -9 17 0 40 14 68 43 31 32
51 44 75 45 25 1 32 -3 32 -18z m1250 -23 c0 -27 -70 -92 -115 -107 -68 -23
-165 37 -165 103 0 29 19 19 39 -22 23 -43 36 -51 90 -51 43 0 84 27 106 69
16 32 45 37 45 8z m-161 -13 c45 -9 33 -30 -15 -25 -47 4 -61 11 -43 22 17 11
18 11 58 3z m-921 -74 c-14 -22 -68 -45 -68 -29 0 5 8 9 18 9 11 0 27 9 37 20
23 26 29 26 13 0z m-88 -34 c0 -2 -7 -7 -16 -10 -8 -3 -12 -2 -9 4 6 10 25 14
25 6z m4 -29 c-5 -14 52 -81 75 -88 8 -3 11 -10 7 -17 -6 -9 -15 -8 -37 5 -16
10 -29 21 -29 25 0 4 -7 5 -15 2 -10 -4 -13 1 -12 23 2 22 -2 27 -15 25 -35
-6 -10 25 29 37 1 1 0 -5 -3 -12z m71 -7 c-3 -5 -13 -10 -21 -10 -8 0 -14 5
-14 10 0 6 9 10 21 10 11 0 17 -4 14 -10z m25 -30 c0 -5 -7 -10 -15 -10 -8 0
-15 5 -15 10 0 6 7 10 15 10 8 0 15 -4 15 -10z m1107 -11 c15 -6 23 -13 17
-15 -6 -3 -26 2 -45 10 -39 18 -14 22 28 5z m-1075 -21 c-7 -7 -12 -8 -12 -2
0 14 12 26 19 19 2 -3 -1 -11 -7 -17z m998 12 c0 -5 -9 -10 -21 -10 -11 0 -17
5 -14 10 3 6 13 10 21 10 8 0 14 -4 14 -10z m-1690 -24 c0 -2 -7 -6 -15 -10
-8 -3 -15 -1 -15 4 0 6 7 10 15 10 8 0 15 -2 15 -4z m494 -21 c4 -16 11 -23
18 -19 8 5 9 2 5 -9 -3 -10 -3 -17 2 -17 5 0 11 -10 14 -22 5 -18 4 -19 -8 -7
-13 14 -55 85 -55 94 0 3 4 5 9 5 5 0 12 -11 15 -25z m1260 10 c6 -16 -3 -19
-28 -9 -22 8 -20 24 3 24 10 0 21 -7 25 -15z m-1307 -11 c-3 -3 -12 -4 -19 -1
-8 3 -5 6 6 6 11 1 17 -2 13 -5z m1244 -17 c-16 -16 0 -47 25 -47 26 0 29 -7
14 -30 -9 -13 -12 -12 -26 5 -8 11 -24 30 -34 43 -26 29 -25 37 5 37 13 0 20
-4 16 -8z m-1116 -35 c-6 -7 -35 18 -35 31 0 5 9 2 20 -8 11 -10 18 -20 15
-23z m-131 7 c-3 -5 -10 -7 -15 -3 -5 3 -7 10 -3 15 3 5 10 7 15 3 5 -3 7 -10
3 -15z m1316 12 c0 -5 3 -16 6 -25 3 -9 1 -16 -6 -16 -6 0 -8 5 -5 10 3 6 -1
13 -9 16 -20 8 -21 24 -1 24 8 0 15 -4 15 -9z m20 -61 c-19 -13 -30 -13 -30 0
0 6 10 10 23 10 18 0 19 -2 7 -10z m-10 -44 c0 -2 -9 -6 -20 -9 -11 -3 -18 -1
-14 4 5 9 34 13 34 5z"/>
<path d="M9658 8033 c7 -3 16 -2 19 1 4 3 -2 6 -13 5 -11 0 -14 -3 -6 -6z"/>
<path d="M9534 7935 c11 -8 24 -15 30 -15 5 0 1 7 -10 15 -10 8 -23 14 -29 14
-5 0 -1 -6 9 -14z"/>
<path d="M8987 7355 c-15 -19 -22 -32 -15 -29 15 6 52 54 46 59 -2 2 -16 -11
-31 -30z"/>
<path d="M9000 7140 c-13 -8 -13 -10 2 -10 9 0 20 5 23 10 8 13 -5 13 -25 0z"/>
<path d="M9997 5625 c3 -8 9 -12 14 -9 12 7 11 11 -5 17 -10 4 -13 1 -9 -8z"/>
<path d="M9135 490 c10 -11 20 -20 23 -20 3 0 -3 9 -13 20 -10 11 -20 20 -23
20 -3 0 3 -9 13 -20z"/>
<path d="M9392 390 c-7 -11 -8 -20 -3 -20 9 0 24 30 18 36 -1 2 -8 -6 -15 -16z"/>
<path d="M9250 8390 c-8 -5 -23 -10 -33 -10 -25 0 -78 -57 -70 -76 7 -20 26
-17 41 6 7 11 17 20 23 20 14 0 59 47 59 61 0 11 -1 11 -20 -1z"/>
<path d="M9377 8363 c-4 -3 -7 -11 -7 -17 0 -6 5 -5 12 2 6 6 9 14 7 17 -3 3
-9 2 -12 -2z"/>
<path d="M9339 8343 c-13 -16 -12 -17 4 -4 9 7 17 15 17 17 0 8 -8 3 -21 -13z"/>
<path d="M9952 8105 c6 -14 15 -25 20 -25 5 0 1 11 -8 25 -9 14 -18 25 -20 25
-2 0 2 -11 8 -25z"/>
<path d="M8605 8044 c-19 -15 -22 -21 -9 -15 18 9 52 41 43 41 -2 0 -17 -12
-34 -26z"/>
<path d="M9996 8047 c3 -10 9 -15 12 -12 3 3 0 11 -7 18 -10 9 -11 8 -5 -6z"/>
<path d="M8780 7949 c0 -5 5 -7 10 -4 6 3 10 8 10 11 0 2 -4 4 -10 4 -5 0 -10
-5 -10 -11z"/>
<path d="M8775 7787 c-28 -24 -77 -60 -110 -82 -33 -21 -76 -55 -95 -74 -20
-20 -56 -53 -80 -74 -33 -28 -35 -32 -10 -15 63 44 66 42 15 -12 -51 -54 -47
-57 14 -11 19 14 39 26 45 26 22 2 52 19 101 59 64 52 146 136 132 136 -5 0
-2 10 9 22 19 21 18 21 -16 -1 -34 -23 -34 -22 8 19 37 37 48 50 39 50 -1 0
-25 -19 -52 -43z m0 -56 c-3 -5 -26 -21 -51 -35 -27 -15 -41 -19 -33 -10 7 8
29 24 48 34 42 22 44 23 36 11z"/>
<path d="M10160 7808 c0 -8 7 -24 16 -37 13 -18 18 -20 25 -10 6 10 17 6 46
-17 45 -36 51 -66 29 -131 -18 -54 -19 -61 -7 -47 5 5 16 33 25 62 19 65 9 92
-51 141 -37 31 -60 41 -48 21 3 -5 1 -10 -4 -10 -6 0 -11 6 -11 14 0 8 -4 18
-10 21 -5 3 -10 0 -10 -7z"/>
<path d="M8260 7749 c0 -5 5 -7 10 -4 6 3 10 8 10 11 0 2 -4 4 -10 4 -5 0 -10
-5 -10 -11z"/>
<path d="M10116 7734 c-7 -19 18 -36 32 -22 7 7 12 17 12 23 0 15 -38 14 -44
-1z"/>
<path d="M10171 7690 c0 -33 1 -34 11 -12 8 17 8 26 0 34 -9 9 -12 4 -11 -22z"/>
<path d="M8527 7646 c-59 -41 -73 -55 -29 -30 33 19 91 63 82 63 -3 0 -27 -15
-53 -33z"/>
<path d="M8126 7655 c-11 -8 -15 -15 -9 -15 6 0 16 7 23 15 16 19 11 19 -14 0z"/>
<path d="M8389 7573 c-13 -16 -12 -17 4 -4 16 13 21 21 13 21 -2 0 -10 -8 -17
-17z"/>
<path d="M8290 7555 c-7 -9 -8 -15 -2 -15 5 0 12 7 16 15 3 8 4 15 2 15 -2 0
-9 -7 -16 -15z"/>
<path d="M8841 7514 c-73 -44 -100 -73 -36 -39 52 28 101 63 94 69 -2 2 -28
-12 -58 -30z"/>
<path d="M10077 7509 c4 -16 8 -17 14 -7 13 19 11 28 -5 28 -9 0 -12 -7 -9
-21z"/>
<path d="M8665 7429 c-22 -10 -53 -31 -70 -45 -22 -19 -24 -22 -5 -10 14 9 44
26 68 37 23 12 45 25 48 30 7 12 6 11 -41 -12z"/>
<path d="M8774 7427 c-12 -7 -34 -27 -49 -44 -27 -33 -59 -48 -34 -16 8 9 -3
4 -23 -11 -44 -33 -50 -46 -10 -22 l27 17 -28 -25 c-47 -43 -12 -29 40 15 57
49 109 99 102 99 -2 -1 -14 -6 -25 -13z"/>
<path d="M8208 7362 c-38 -28 -62 -70 -30 -53 23 13 88 81 76 81 -5 -1 -26
-13 -46 -28z"/>
<path d="M9958 6583 c-33 -5 -47 -33 -16 -33 30 0 98 22 98 32 0 8 -32 9 -82
1z"/>
<path d="M8107 6423 l-29 -4 51 -50 c28 -27 55 -49 61 -49 6 0 10 -6 8 -13 -2
-6 7 -26 18 -42 12 -17 24 -37 28 -45 3 -8 4 -5 2 8 -5 26 12 29 29 5 12 -16
51 -25 116 -26 17 0 38 11 55 29 16 16 42 39 57 51 17 13 27 29 25 40 -3 16
-17 18 -143 18 -100 0 -147 4 -164 14 -32 18 -12 30 49 32 l45 1 -65 19 c-64
19 -86 20 -143 12z"/>
<path d="M8155 6276 c9 -13 23 -27 31 -30 12 -5 12 0 -3 24 -9 17 -23 30 -30
30 -10 0 -10 -6 2 -24z"/>
<path d="M8211 6210 c14 -31 19 -36 19 -24 0 6 -7 19 -16 30 -14 18 -14 18 -3
-6z"/>
<path d="M8251 6150 c0 -35 3 -50 8 -40 5 8 5 33 1 55 -8 40 -8 40 -9 -15z"/>
<path d="M8113 6104 c-5 -10 -9 -26 -8 -34 1 -8 3 -23 3 -33 1 -11 8 -17 18
-15 22 4 28 59 10 83 -13 18 -14 18 -23 -1z"/>
<path d="M8165 5990 c-3 -5 -1 -10 4 -10 6 0 11 5 11 10 0 6 -2 10 -4 10 -3 0
-8 -4 -11 -10z"/>
<path d="M7933 4008 c-6 -7 -18 -29 -28 -48 -9 -19 -30 -45 -46 -58 -20 -16
-29 -32 -29 -53 0 -19 -9 -38 -25 -53 -17 -16 -25 -34 -25 -55 0 -45 -16 -71
-45 -71 -13 0 -25 -5 -27 -12 -11 -31 234 -401 252 -381 4 4 15 78 25 163 19
170 16 294 -11 460 -19 110 -25 128 -41 108z"/>
<path d="M7947 3054 c-4 -4 -7 -18 -7 -31 0 -24 -15 -31 -23 -10 -3 6 -6 1 -6
-12 -1 -14 -6 -21 -14 -18 -12 4 -40 -17 -32 -25 2 -2 -5 -9 -15 -16 -14 -9
-20 -9 -20 -1 0 8 -4 9 -13 0 -8 -6 -18 -7 -22 -3 -5 4 -5 2 -2 -5 4 -6 -7
-20 -27 -32 -19 -12 -37 -28 -40 -36 -3 -8 -12 -12 -21 -9 -8 3 -15 1 -15 -5
0 -6 -9 -11 -20 -11 -14 0 -18 -5 -13 -16 5 -14 1 -16 -20 -12 -15 3 -27 2
-27 -2 0 -10 -44 -7 -51 4 -8 11 -51 -3 -44 -14 3 -4 -17 -22 -45 -39 -39 -24
-50 -27 -50 -15 0 14 -2 14 -16 0 -8 -9 -21 -16 -29 -16 -7 0 -15 -4 -17 -9
-2 -6 -19 -5 -44 1 -37 10 -42 9 -67 -15 -14 -15 -33 -27 -42 -27 -10 0 -13
-5 -9 -12 5 -8 2 -9 -10 -5 -23 9 -76 -22 -69 -40 3 -7 0 -13 -7 -13 -7 0 -23
-11 -35 -24 -13 -14 -26 -22 -29 -19 -3 4 -6 1 -6 -5 0 -5 6 -13 13 -16 10 -5
10 -7 0 -12 -7 -3 -13 -13 -13 -21 0 -10 -6 -14 -20 -10 -11 3 -23 0 -27 -5
-3 -7 -1 -8 5 -4 7 4 12 5 12 2 0 -11 -57 -34 -67 -28 -6 4 -13 16 -15 27 -4
17 -6 16 -17 -10 -25 -63 -24 -62 -28 -42 -3 9 -11 17 -19 17 -8 0 -13 -4 -9
-9 5 -10 -21 -41 -34 -41 -5 0 -14 7 -21 15 -13 16 -34 10 -24 -7 4 -6 1 -9
-7 -6 -16 6 -69 -22 -69 -35 0 -6 -5 -6 -12 -1 -15 11 -35 10 -60 -1 -10 -4
-24 -5 -32 -2 -8 3 -22 -3 -31 -13 -10 -11 -20 -19 -24 -18 -3 1 -19 -4 -36
-11 -16 -7 -37 -13 -46 -14 -9 -1 -15 -7 -12 -14 3 -7 1 -13 -4 -13 -5 0 -30
-20 -55 -44 -26 -24 -50 -46 -55 -47 -4 -2 -21 -21 -37 -42 -17 -24 -34 -36
-42 -33 -15 6 -32 -6 -84 -58 -22 -23 -27 -33 -18 -43 14 -17 3 -16 -57 2 -27
8 -53 11 -59 7 -6 -4 -28 -7 -48 -8 -28 0 -38 3 -38 15 0 10 -3 12 -8 5 -10
-16 -82 -25 -103 -13 -11 5 -16 16 -13 24 8 19 -10 20 -25 1 -18 -21 -61 -17
-61 5 0 11 -7 19 -15 19 -8 0 -15 5 -15 11 0 6 -6 9 -14 6 -21 -8 -26 2 -16
29 7 17 5 27 -5 38 -8 8 -15 22 -15 31 0 19 -32 34 -38 17 -2 -7 -10 -12 -18
-12 -8 0 -14 -4 -14 -10 0 -5 -18 -13 -40 -16 -22 -4 -38 -10 -35 -14 3 -4
-10 -11 -29 -14 -29 -6 -44 -19 -51 -46 -14 -56 -32 -80 -76 -101 -35 -18 -47
-29 -46 -44 2 -15 -4 -20 -23 -20 -22 0 -27 -7 -37 -48 -6 -27 -16 -54 -21
-60 -16 -20 -10 -46 12 -53 19 -6 19 -7 1 -20 -17 -12 -17 -14 -2 -14 9 0 17
-4 17 -8 0 -5 10 -8 23 -6 12 1 26 3 30 3 5 1 6 14 2 30 -5 24 -1 32 25 51 22
15 30 28 27 41 -8 30 17 42 42 20 20 -17 20 -20 6 -35 -9 -9 -23 -16 -30 -16
-8 0 -17 -4 -20 -10 -9 -15 4 -30 21 -23 13 5 13 7 2 14 -10 7 -9 9 5 9 9 0
17 -5 17 -12 0 -28 30 -45 68 -38 20 3 45 2 54 -4 12 -7 28 -4 62 13 33 17 55
22 81 18 23 -4 35 -2 35 6 1 17 50 -41 50 -58 0 -9 6 -12 17 -8 12 5 8 -4 -11
-30 -16 -20 -32 -35 -36 -32 -11 7 -60 -16 -60 -27 0 -5 -4 -7 -9 -4 -5 3 -35
-3 -67 -13 -33 -11 -52 -20 -44 -21 10 0 7 -7 -10 -20 -27 -21 -55 -27 -45 -9
4 6 -3 5 -15 -3 -17 -9 -24 -10 -27 -2 -4 11 -48 4 -118 -16 -5 -2 -18 0 -28
5 -10 4 -24 2 -33 -6 -12 -10 -17 -10 -23 0 -6 9 -15 9 -35 1 -35 -13 -49 -13
-40 1 3 6 -4 4 -17 -4 -13 -8 -42 -14 -64 -13 -22 2 -56 -3 -75 -9 -19 -7 -44
-9 -55 -5 -11 4 -34 1 -52 -7 -18 -7 -63 -15 -101 -16 -51 -3 -78 -10 -100
-25 -16 -12 -36 -22 -43 -22 -7 0 -10 -3 -6 -6 8 -9 -63 -46 -85 -46 -10 1
-18 -6 -18 -14 0 -8 -7 -15 -15 -15 -37 -3 -76 -19 -98 -39 -10 -10 -39 -24
-63 -31 -24 -8 -44 -17 -44 -21 0 -4 -17 -10 -37 -14 -21 -4 -44 -14 -52 -21
-9 -9 -24 -13 -40 -9 -14 3 -48 9 -76 13 -31 4 -55 13 -63 25 -7 10 -24 18
-38 18 -39 0 -147 -33 -167 -51 -20 -18 -131 -35 -158 -24 -11 4 -18 0 -21
-13 -6 -23 -51 -34 -153 -38 -38 -1 -90 -7 -115 -13 -31 -7 -46 -7 -51 1 -4 6
-9 7 -12 0 -4 -5 -23 -8 -44 -6 -27 2 -41 -2 -50 -15 -7 -10 -23 -19 -35 -20
-53 -3 -85 -8 -113 -20 -16 -7 -41 -11 -55 -9 -14 1 -32 -2 -40 -7 -8 -5 -27
-8 -42 -7 -14 1 -29 -2 -33 -8 -16 -26 -38 -5 -72 70 -20 44 -38 79 -39 77 -4
-3 51 -137 82 -203 l15 -31 77 23 c42 13 126 29 187 34 321 31 370 38 624 102
l164 41 89 -27 c49 -14 107 -29 131 -32 97 -13 415 65 559 137 46 23 146 79
223 125 l140 83 240 10 240 9 115 42 c229 84 308 108 680 205 69 18 202 50
295 70 155 34 449 115 1170 321 143 41 265 74 271 74 7 0 15 -10 19 -22 7 -20
9 -18 12 16 3 27 -3 54 -21 92 -14 30 -26 63 -26 74 0 11 -6 34 -14 52 -8 18
-28 89 -44 158 -17 69 -39 159 -50 200 -10 41 -25 113 -32 160 -17 115 -24
143 -33 134z m74 -415 c42 -80 60 -254 26 -257 -7 0 -30 -4 -52 -7 -22 -4 -58
-8 -80 -9 -40 -3 -65 -9 -98 -27 -10 -5 -21 -8 -25 -5 -7 4 -90 -9 -125 -20
-15 -5 -17 -1 -11 20 5 20 2 26 -9 26 -9 0 -19 5 -23 12 -5 8 -2 9 10 5 14 -6
17 -3 12 9 -7 17 49 84 70 84 7 0 14 5 16 11 2 5 11 11 21 13 10 1 17 6 17 10
-1 5 7 14 18 20 110 64 184 111 193 122 16 19 26 17 40 -7z m-1967 -639 c-7
-7 -19 -7 -35 -1 l-24 10 28 0 c20 1 26 5 21 14 -6 10 -4 10 7 0 9 -9 10 -16
3 -23z m-749 -250 c3 -5 -1 -10 -9 -10 -9 0 -16 5 -16 10 0 6 4 10 9 10 6 0
13 -4 16 -10z m352 -136 c-3 -3 -12 -4 -19 -1 -8 3 -5 6 6 6 11 1 17 -2 13 -5z"/>
<path d="M7660 2399 c0 -5 5 -7 10 -4 6 3 10 8 10 11 0 2 -4 4 -10 4 -5 0 -10
-5 -10 -11z"/>
<path d="M5947 2662 c-16 -7 -44 -35 -63 -62 -27 -37 -43 -50 -79 -60 -25 -7
-45 -17 -45 -22 0 -6 8 -7 18 -3 9 4 37 15 62 23 25 9 48 20 51 25 4 5 17 7
31 4 27 -7 42 1 52 27 4 12 2 23 -6 27 -11 7 -11 12 0 30 17 27 14 29 -21 11z
m3 -82 c0 -5 -5 -10 -11 -10 -5 0 -7 5 -4 10 3 6 8 10 11 10 2 0 4 -4 4 -10z"/>
<path d="M7007 2540 c3 -11 9 -20 14 -20 11 0 11 3 3 24 -9 23 -23 20 -17 -4z"/>
<path d="M5685 2500 c-27 -11 -56 -27 -62 -37 -7 -9 -27 -18 -44 -20 -17 -2
-78 -28 -136 -58 -58 -30 -114 -55 -124 -55 -13 0 -17 -5 -12 -17 5 -15 3 -16
-8 -5 -7 6 -17 12 -21 12 -11 0 -6 -23 7 -33 6 -4 0 -10 -12 -13 -13 -4 -23
-11 -23 -16 0 -5 4 -7 9 -3 5 3 12 1 15 -4 7 -11 46 -9 66 4 8 5 21 10 28 11
7 2 21 11 30 21 9 11 32 25 50 32 17 8 32 17 32 22 0 5 15 15 33 23 17 8 26
15 20 15 -18 1 -16 21 2 21 8 0 15 -4 15 -9 0 -15 37 -1 64 24 14 13 27 21 29
19 2 -3 12 7 21 21 9 14 25 25 35 25 10 0 26 9 36 20 22 25 14 25 -50 0z"/>
<path d="M6940 2488 c0 -11 28 -10 35 1 3 6 -4 9 -15 8 -11 -1 -20 -5 -20 -9z"/>
<path d="M5680 2460 c0 -5 5 -10 10 -10 6 0 10 5 10 10 0 6 -4 10 -10 10 -5 0
-10 -4 -10 -10z"/>
<path d="M4840 2172 c-43 -12 -140 -64 -135 -72 3 -6 17 -5 33 2 15 6 38 12
53 14 14 2 56 17 95 33 l69 31 -50 -2 c-27 -1 -57 -3 -65 -6z"/>
<path d="M4625 2141 c-11 -5 -27 -6 -35 -4 -10 3 -9 1 2 -7 12 -7 24 -8 37 -1
10 6 21 8 24 5 3 -3 8 -1 12 5 7 13 -11 13 -40 2z"/>
<path d="M8160 2130 c0 -5 5 -10 10 -10 6 0 10 5 10 10 0 6 -4 10 -10 10 -5 0
-10 -4 -10 -10z"/>
<path d="M10491 1962 c-18 -12 -48 -17 -115 -18 -94 -1 -130 -12 -187 -58 -15
-12 -41 -29 -58 -38 -17 -10 -36 -28 -41 -40 -5 -13 -9 -19 -9 -14 -1 12 -70
-59 -73 -75 -2 -7 -11 -20 -21 -29 -33 -29 -29 -57 11 -80 l37 -20 -30 25
c-39 32 -29 32 30 -1 52 -30 65 -24 65 29 0 41 29 134 47 152 14 14 16 14 27
-1 19 -25 53 1 61 47 6 32 9 35 32 31 24 -4 25 -3 19 22 -4 15 -2 26 4 26 9 0
14 -14 11 -32 0 -4 4 -19 9 -33 7 -18 5 -47 -5 -96 -23 -111 -16 -134 10 -30
26 106 37 120 115 140 53 14 72 30 88 79 12 36 8 38 -27 14z m-431 -247 c-7
-8 -20 -14 -29 -14 -14 1 -14 2 1 6 9 2 20 14 24 26 4 13 9 17 12 9 2 -7 -2
-19 -8 -27z"/>
<path d="M8223 1855 c3 -11 9 -39 12 -62 4 -24 10 -43 14 -43 9 0 -11 106 -23
117 -5 4 -6 -1 -3 -12z"/>
<path d="M9957 1609 c7 -7 15 -10 18 -7 3 3 -2 9 -12 12 -14 6 -15 5 -6 -5z"/>
<path d="M11040 1573 c-30 -8 -83 -21 -118 -30 -50 -12 -60 -18 -51 -29 8 -10
5 -15 -15 -20 -14 -3 -24 -10 -21 -14 3 -4 -5 -10 -16 -13 -12 -3 -18 -10 -15
-16 4 -6 1 -19 -6 -30 -11 -18 -10 -24 9 -43 l22 -22 11 30 c12 32 48 74 63
74 5 0 17 10 27 23 10 12 22 19 26 15 4 -4 1 -14 -6 -23 -22 -27 4 -16 39 17
18 17 52 41 74 52 23 12 43 27 45 34 4 14 4 14 -68 -5z"/>
<path d="M10121 1557 c0 -11 -6 -15 -12 -11 -20 12 8 -30 36 -55 19 -16 24
-26 16 -30 -6 -4 -9 -15 -5 -25 6 -15 8 -14 18 6 8 16 20 23 40 23 25 -1 26 0
9 12 -10 7 -23 17 -30 23 -8 7 -14 6 -19 -1 -8 -14 -41 21 -47 52 -3 16 -5 18
-6 6z"/>
<path d="M10916 1444 c-8 -21 -9 -20 19 -38 23 -15 24 -15 18 1 -5 14 0 12 20
-6 27 -24 27 -31 -2 -65 -14 -18 -14 -19 0 -14 27 10 131 79 126 84 -3 3 -19
-3 -36 -14 l-31 -19 -45 44 c-49 47 -60 51 -69 27z"/>
<path d="M10210 1416 c0 -2 9 -6 20 -9 11 -3 18 -1 14 4 -5 9 -34 13 -34 5z"/>
<path d="M10560 1399 c0 -8 55 -57 90 -82 13 -9 19 -20 15 -27 -6 -9 -10 -9
-16 1 -5 8 -9 9 -9 3 0 -6 30 -31 68 -54 37 -24 77 -53 90 -64 l24 -21 -7 27
c-7 25 -5 28 19 26 14 -1 26 -6 26 -10 0 -4 7 -8 15 -8 8 0 15 7 15 15 0 10
-10 14 -35 13 -20 -1 -40 3 -46 9 -13 13 7 67 21 58 5 -3 10 -2 10 2 0 5 -27
15 -60 21 -33 7 -60 17 -60 21 0 18 30 32 52 26 22 -7 22 -6 -4 20 -25 26 -32
28 -117 29 -50 1 -91 -2 -91 -5z m130 -118 c0 -5 9 -13 21 -16 11 -4 18 -9 16
-11 -7 -7 -57 18 -57 28 0 4 5 8 10 8 6 0 10 -4 10 -9z m62 -43 c-7 -7 -12 -8
-12 -2 0 14 12 26 19 19 2 -3 -1 -11 -7 -17z"/>
<path d="M10250 1351 c0 -5 7 -15 17 -22 15 -13 15 -12 4 9 -12 23 -21 28 -21
13z"/>
<path d="M1984 1336 c-7 -7 -15 -28 -19 -47 -4 -19 -19 -55 -33 -81 -21 -39
-23 -50 -12 -63 17 -20 33 -7 71 60 29 50 37 85 20 85 -6 0 -11 13 -13 29 -2
22 -6 26 -14 17z"/>
<path d="M11076 1308 c-14 -18 -31 -38 -36 -45 -14 -17 -12 -23 5 -23 9 0 21
-11 27 -25 6 -14 14 -25 17 -25 15 0 51 32 51 46 0 21 -18 17 -31 -8 l-12 -22
-9 24 c-6 18 -4 35 8 62 22 50 13 57 -20 16z"/>
<path d="M10584 1309 c9 -14 13 -33 9 -50 -6 -33 3 -37 24 -11 13 16 14 16 11
-3 -2 -11 -15 -26 -29 -32 -22 -11 -32 -10 -55 2 -16 8 -38 15 -49 14 -13 0
-1 -9 30 -24 34 -17 52 -21 56 -13 9 14 56 5 115 -21 24 -11 47 -20 50 -20 3
0 16 -7 30 -15 26 -18 31 -11 11 14 -17 22 -150 113 -164 113 -7 0 -13 8 -13
18 0 28 -11 49 -27 49 -12 0 -12 -3 1 -21z"/>
<path d="M10477 1309 c7 -7 15 -10 18 -7 3 3 -2 9 -12 12 -14 6 -15 5 -6 -5z"/>
<path d="M10545 1290 c-18 -8 -17 -9 8 -9 16 -1 26 3 22 9 -3 6 -7 10 -8 9 -1
0 -11 -4 -22 -9z"/>
<path d="M10972 1269 c2 -7 10 -15 17 -17 8 -3 12 1 9 9 -2 7 -10 15 -17 17
-8 3 -12 -1 -9 -9z"/>
<path d="M1655 1240 c-3 -5 -1 -10 4 -10 6 0 11 5 11 10 0 6 -2 10 -4 10 -3 0
-8 -4 -11 -10z"/>
<path d="M8266 1220 c82 -9 128 -22 198 -57 26 -13 46 -21 43 -16 -9 15 -96
55 -150 69 -29 8 -77 13 -107 13 -55 -2 -55 -2 16 -9z"/>
<path d="M10906 1213 c-9 -9 -7 -43 2 -44 4 0 14 -2 23 -4 12 -2 15 3 11 20
-4 24 -25 39 -36 28z"/>
<path d="M8030 1200 c-9 -6 -10 -10 -3 -10 6 0 15 5 18 10 8 12 4 12 -15 0z"/>
<path d="M11021 1171 c-8 -5 -9 -11 -3 -15 13 -8 42 3 42 15 0 11 -21 11 -39
0z"/>
<path d="M11135 1160 c-4 -6 -2 -17 4 -23 5 -7 8 -23 4 -35 -6 -24 8 -29 25
-9 7 8 8 24 4 42 -9 31 -26 43 -37 25z"/>
<path d="M10615 1140 c22 -11 48 -20 58 -20 19 0 77 -57 77 -75 0 -5 12 -15
26 -22 23 -11 24 -10 19 8 -6 18 -5 19 14 7 18 -11 23 -9 41 10 21 22 46 24
113 5 9 -2 17 0 17 6 0 6 -7 11 -15 11 -8 0 -15 5 -15 11 0 6 -6 9 -14 6 -8
-3 -17 -1 -20 6 -5 9 -7 9 -12 0 -9 -20 -33 -16 -161 23 -143 43 -185 51 -128
24z m150 -51 c11 -16 1 -19 -13 -3 -7 8 -8 14 -3 14 5 0 13 -5 16 -11z"/>
<path d="M10850 1136 c0 -9 5 -16 10 -16 6 0 10 4 10 9 0 6 -4 13 -10 16 -5 3
-10 -1 -10 -9z"/>
<path d="M10965 1090 c3 -5 10 -10 16 -10 5 0 9 5 9 10 0 6 -7 10 -16 10 -8 0
-12 -4 -9 -10z"/>
<path d="M11010 1049 c0 -5 5 -7 10 -4 6 3 10 8 10 11 0 2 -4 4 -10 4 -5 0
-10 -5 -10 -11z"/>
<path d="M1046 1042 c-2 -4 -1 -14 3 -21 6 -9 10 -7 14 8 5 20 -7 29 -17 13z"/>
<path d="M11180 1030 c0 -8 9 -21 21 -28 16 -10 18 -16 9 -27 -11 -13 1 -30
14 -18 11 11 6 27 -19 58 -16 19 -25 24 -25 15z"/>
<path d="M10900 1020 c0 -5 5 -10 10 -10 6 0 10 5 10 10 0 6 -4 10 -10 10 -5
0 -10 -4 -10 -10z"/>
<path d="M1024 996 c-4 -10 0 -24 8 -33 21 -20 31 6 12 31 -13 18 -14 18 -20
2z"/>
<path d="M10874 971 c4 -6 0 -14 -8 -17 -9 -3 -16 -10 -16 -15 0 -5 10 -4 21
3 17 10 23 10 26 1 3 -7 9 -13 14 -13 17 0 9 18 -17 35 -15 9 -23 12 -20 6z"/>
<path d="M10955 970 c-3 -6 5 -14 19 -20 14 -5 26 -14 26 -20 0 -5 11 -10 25
-10 16 0 25 6 25 16 0 10 -6 13 -18 10 -12 -4 -26 1 -37 14 -20 22 -31 25 -40
10z"/>
<path d="M11028 973 c7 -3 16 -2 19 1 4 3 -2 6 -13 5 -11 0 -14 -3 -6 -6z"/>
<path d="M557 899 c-48 -39 -66 -75 -61 -119 5 -42 113 -206 176 -266 119
-114 313 -206 428 -203 l45 2 -55 7 c-113 14 -218 59 -343 147 -84 60 -151
135 -162 182 -3 16 -1 48 5 70 8 33 8 52 -5 93 -11 38 -12 55 -4 64 6 8 15 11
20 8 5 -3 9 6 9 20 0 33 -7 33 -53 -5z m-39 -144 c-3 -3 -9 2 -12 12 -6 14 -5
15 5 6 7 -7 10 -15 7 -18z"/>
<path d="M11245 920 c-4 -6 0 -19 9 -29 11 -12 14 -28 9 -54 -7 -42 1 -46 28
-14 20 24 25 42 9 32 -6 -3 -10 4 -10 18 0 28 -34 64 -45 47z"/>
<path d="M10910 913 c1 -4 7 -19 15 -33 11 -20 14 -21 15 -7 0 10 -7 25 -15
33 -8 9 -15 12 -15 7z"/>
<path d="M10980 890 c0 -5 5 -10 11 -10 5 0 7 5 4 10 -3 6 -8 10 -11 10 -2 0
-4 -4 -4 -10z"/>
<path d="M2515 867 c-33 -13 -69 -29 -80 -36 -36 -22 30 -3 99 29 73 34 64 38
-19 7z"/>
<path d="M10670 835 c-7 -13 -10 -36 -7 -52 36 -193 55 -263 72 -263 7 0 16
-8 19 -17 3 -10 18 -26 33 -36 16 -9 43 -27 62 -39 24 -16 256 -78 290 -78 3
0 -14 16 -37 36 -24 21 -42 45 -43 57 0 22 0 22 -9 -1 -13 -31 -32 -36 -77
-22 -69 22 -103 42 -103 60 0 20 -33 53 -44 43 -12 -12 -26 20 -19 47 5 22 4
23 -9 12 -12 -10 -18 -10 -28 2 -6 9 -9 19 -6 24 3 5 -1 32 -9 60 -10 40 -11
58 -2 78 11 25 14 25 67 19 98 -13 132 -11 143 7 15 22 9 27 -30 21 -21 -3
-33 -11 -33 -21 0 -12 -5 -11 -23 6 -26 24 -47 29 -47 10 -1 -7 -10 -2 -20 11
-13 15 -27 22 -40 18 -11 -3 -23 0 -28 7 -4 6 -19 17 -33 23 -24 10 -28 9 -39
-12z m95 -45 c8 -13 -15 -13 -35 0 -12 8 -11 10 7 10 12 0 25 -4 28 -10z m-22
-198 c6 -72 -9 -85 -18 -14 -3 26 -10 71 -15 101 -15 80 -10 93 9 30 10 -30
20 -83 24 -117z"/>
<path d="M10998 828 l-23 -33 32 25 c32 25 41 40 24 40 -5 0 -20 -15 -33 -32z"/>
<path d="M11077 849 c8 -8 16 -8 30 0 16 9 14 10 -11 11 -22 0 -27 -3 -19 -11z"/>
<path d="M2660 836 c0 -2 7 -7 16 -10 8 -3 12 -2 9 4 -6 10 -25 14 -25 6z"/>
<path d="M1380 780 c-13 -8 -12 -11 5 -25 21 -15 63 -30 70 -24 2 2 1 16 -2
32 -4 21 -11 27 -32 27 -14 0 -33 -5 -41 -10z"/>
<path d="M2660 779 c0 -5 5 -7 10 -4 6 3 10 8 10 11 0 2 -4 4 -10 4 -5 0 -10
-5 -10 -11z"/>
<path d="M11228 783 c6 -2 12 -13 12 -24 0 -10 5 -19 10 -19 13 0 13 6 0 31
-6 10 -16 19 -23 18 -9 0 -9 -2 1 -6z"/>
<path d="M11054 768 c3 -7 9 -21 12 -30 6 -17 17 -22 37 -19 4 0 7 -6 7 -14 0
-21 33 -19 53 3 19 21 22 42 6 42 -5 0 -7 -4 -4 -10 3 -5 1 -10 -4 -10 -6 0
-11 5 -11 10 0 6 -18 10 -40 10 -29 0 -40 4 -40 15 0 8 -5 15 -11 15 -6 0 -8
-6 -5 -12z"/>
<path d="M2575 724 c-15 -14 -25 -27 -23 -29 3 -3 17 9 33 25 35 37 28 40 -10
4z"/>
<path d="M2637 743 c-4 -3 -7 -11 -7 -17 0 -6 5 -5 12 2 6 6 9 14 7 17 -3 3
-9 2 -12 -2z"/>
<path d="M11300 732 c0 -13 23 -32 38 -32 7 0 10 4 7 10 -9 14 -45 32 -45 22z"/>
<path d="M10780 716 c-6 -6 -10 -17 -10 -25 1 -14 3 -13 14 2 7 9 21 17 30 17
9 0 16 4 16 9 0 12 -37 10 -50 -3z"/>
<path d="M745 704 c11 -9 51 -31 88 -50 37 -19 65 -38 63 -43 -3 -5 -31 -19
-61 -31 -31 -12 -54 -24 -52 -27 6 -6 149 52 148 60 -1 7 -188 107 -200 107
-3 0 3 -8 14 -16z"/>
<path d="M1472 711 c-10 -6 -9 -11 3 -21 11 -9 19 -10 26 -3 13 13 -12 35 -29
24z"/>
<path d="M11208 700 c-21 -4 -46 -14 -55 -23 -16 -13 -20 -14 -37 -1 -28 20
-31 19 -57 -31 -13 -25 -28 -45 -32 -45 -5 0 -7 19 -6 43 4 42 3 43 -26 45
l-30 3 24 -17 c22 -16 23 -22 18 -80 -5 -50 -3 -65 10 -76 15 -12 15 -11 4 10
-13 25 3 31 17 6 6 -11 11 -13 16 -5 4 6 4 11 -1 11 -4 0 3 7 15 16 12 8 22
24 22 35 0 10 5 19 11 19 6 0 9 7 6 15 -4 8 -2 17 3 20 6 4 10 0 10 -7 0 -8 3
-9 8 -3 8 12 41 12 89 1 19 -4 34 -3 38 3 3 6 -2 11 -14 11 -30 0 -31 23 -2
42 28 19 26 20 -31 8z"/>
<path d="M2575 674 c-26 -28 -26 -29 -6 -38 11 -5 28 -5 38 -2 17 7 17 8 0 17
-14 9 -16 14 -6 25 23 28 0 26 -26 -2z"/>
<path d="M1510 661 c0 -10 30 -24 37 -17 3 3 2 9 -2 15 -8 13 -35 15 -35 2z"/>
<path d="M2435 650 c-3 -5 1 -10 9 -10 9 0 16 5 16 10 0 6 -4 10 -9 10 -6 0
-13 -4 -16 -10z"/>
<path d="M1560 622 c0 -4 5 -13 12 -20 15 -15 -2 -35 -43 -52 -16 -7 -28 -15
-25 -17 8 -8 106 49 106 62 0 6 -5 16 -12 23 -14 14 -38 16 -38 4z"/>
<path d="M2235 610 c-3 -5 3 -10 14 -10 11 0 23 5 26 10 3 6 -3 10 -14 10 -11
0 -23 -4 -26 -10z"/>
<path d="M2410 610 c-13 -8 -12 -10 3 -10 9 0 17 5 17 10 0 12 -1 12 -20 0z"/>
<path d="M11128 553 c7 -3 16 -2 19 1 4 3 -2 6 -13 5 -11 0 -14 -3 -6 -6z"/>
<path d="M738 543 c6 -2 18 -2 25 0 6 3 1 5 -13 5 -14 0 -19 -2 -12 -5z"/>
<path d="M8097 543 c8 -3 11 -14 7 -28 -3 -12 -1 -26 5 -29 7 -5 7 -15 0 -33
-5 -14 -8 -28 -5 -30 2 -3 10 12 17 32 8 21 18 34 26 31 7 -3 10 1 6 10 -3 7
0 14 7 14 9 0 11 -11 7 -35 l-6 -35 21 20 c21 19 21 20 3 40 -20 22 -71 50
-89 49 -6 0 -6 -3 1 -6z"/>
<path d="M11470 503 c-53 -7 -70 -14 -70 -28 0 -10 -11 -15 -36 -15 -19 0 -33
4 -30 9 3 5 -1 11 -9 15 -9 3 -15 0 -15 -9 0 -8 -8 -15 -17 -16 -12 0 -9 -4 9
-10 15 -6 29 -20 32 -35 5 -17 13 -24 31 -24 14 0 25 5 25 11 0 8 4 8 13 1 8
-7 29 -9 52 -5 l38 6 -24 -44 c-21 -38 -30 -45 -64 -50 -22 -3 -32 -7 -22 -8
23 -2 22 -18 -3 -26 -56 -18 -458 5 -528 29 -83 30 -163 80 -209 130 -25 28
-41 42 -35 31 13 -26 101 -112 133 -130 148 -87 221 -100 502 -91 165 5 221
11 272 27 74 23 85 36 85 108 l0 51 -45 0 c-32 0 -45 4 -45 14 0 7 -7 19 -15
26 -13 10 -13 15 -3 21 17 11 8 15 -22 12z"/>
<path d="M11040 480 c0 -5 5 -10 11 -10 5 0 7 5 4 10 -3 6 -8 10 -11 10 -2 0
-4 -4 -4 -10z"/>
<path d="M11358 473 c7 -3 16 -2 19 1 4 3 -2 6 -13 5 -11 0 -14 -3 -6 -6z"/>
<path d="M1855 437 l49 -32 -199 -7 c-110 -4 -216 -10 -235 -14 -77 -14 17
-24 299 -34 157 -5 304 -12 326 -15 28 -3 23 0 -17 10 -62 16 -100 33 -192 89
-74 45 -99 47 -31 3z"/>
<path d="M11160 463 c0 -16 96 -152 108 -153 7 0 -6 28 -31 63 -24 34 -47 70
-50 80 -6 16 -27 25 -27 10z"/>
<path d="M8200 410 c0 -5 6 -10 14 -10 8 0 17 -6 19 -12 4 -8 6 -7 6 3 1 9 -6
20 -15 23 -21 8 -24 8 -24 -4z"/>
<path d="M7920 394 c0 -13 21 -42 34 -47 13 -5 13 -2 4 18 -9 21 -38 43 -38
29z"/>
<path d="M1365 343 c-17 -9 -69 -20 -120 -24 l-90 -7 90 2 c70 2 99 7 130 24
22 12 36 21 30 21 -5 0 -23 -7 -40 -16z"/>
<path d="M2466 353 c-4 -5 -53 -11 -109 -14 l-102 -7 102 2 c67 1 106 5 115
14 6 6 10 12 7 12 -3 0 -9 -3 -13 -7z"/>
<path d="M8180 300 c0 -5 7 -7 15 -4 8 4 15 8 15 10 0 2 -7 4 -15 4 -8 0 -15
-4 -15 -10z"/>
<path d="M8220 300 c0 -5 7 -7 15 -4 8 4 15 8 15 10 0 2 -7 4 -15 4 -8 0 -15
-4 -15 -10z"/>
<path d="M9192 211 c-22 -13 11 -21 86 -20 l67 1 -40 13 c-47 16 -94 18 -113
6z"/>
<path d="M9563 183 c9 -2 23 -2 30 0 6 3 -1 5 -18 5 -16 0 -22 -2 -12 -5z"/>
</g>
</svg>
